<?xml version="1.0" encoding="UTF-8"?> <!-- Generator: Adobe Illustrator 24.0.2, SVG Export Plug-In . SVG Version: 6.00 Build 0) --> <svg xmlns="http://www.w3.org/2000/svg" xmlns:xlink="http://www.w3.org/1999/xlink" version="1.1" id="Layer_1" x="0px" y="0px" viewBox="0 0 123.8 124" style="enable-background:new 0 0 123.8 124;" xml:space="preserve"> <style type="text/css"> .st0{fill:url(#SVGID_1_);} .st1{opacity:0.2;} .st2{fill:#FCFCFC;} .st3{fill:#FFFFFF;} </style> <g transform="translate(-0.301 0)"> <linearGradient id="SVGID_1_" gradientUnits="userSpaceOnUse" x1="-232.3008" y1="479.9897" x2="-232.3008" y2="478.9897" gradientTransform="matrix(123.7982 0 0 -123.778 28820.6191 59412.3398)"> <stop offset="0" style="stop-color:#A46CF3"></stop> <stop offset="1" style="stop-color:#E26FF7"></stop> </linearGradient> <path class="st0" d="M110.6,112.3c-19,15.5-78.2,15.5-96.8,0c-19-15.5-17-81.7,0-99.1s79.7-17.4,96.8,0S129.6,96.9,110.6,112.3z"></path> <g transform="translate(0.358 0)" class="st1"> <path class="st2" d="M62.2,85.3c-17,13.5-36,20.5-53.8,20.9c-13.2-22.5-10.5-77,5-92.9c13.9-14.3,57.7-17,82.8-8.1 C102.5,30.7,89.7,63.2,62.2,85.3z"></path> </g> <g transform="matrix(1, 0, 0, 1, 0.3, 0)"> <path class="st3" d="M54.3,91.6c-2.4,0.1-4.6-1.1-6-3L29.7,64.7c-2.6-3.3-2-8.1,1.3-10.6s8.1-2,10.6,1.3l12.6,16.3l27.9-36.2 c2.6-3.3,7.3-3.9,10.6-1.3c3.3,2.6,3.9,7.3,1.3,10.6L60.2,88.6C58.6,90.2,56.6,91.6,54.3,91.6z"></path> </g> </g> </svg> 