<?xml version="1.0" encoding="UTF-8"?> <svg xmlns="http://www.w3.org/2000/svg" xmlns:xlink="http://www.w3.org/1999/xlink" width="546.799" height="351.924" viewBox="0 0 546.799 351.924"><defs><linearGradient id="a" x1="0.5" x2="0.5" y2="1" gradientUnits="objectBoundingBox"><stop offset="0" stop-color="#a46cf3"></stop><stop offset="1" stop-color="#e26ff7"></stop></linearGradient><linearGradient id="e" x1="0.5" x2="0.5" y2="1" gradientUnits="objectBoundingBox"><stop offset="0" stop-color="#15956f"></stop><stop offset="1" stop-color="#96d162"></stop></linearGradient><linearGradient id="g" x1="0.5" x2="0.5" y2="1" gradientUnits="objectBoundingBox"><stop offset="0" stop-color="#c44092"></stop><stop offset="0" stop-color="#7f65cb"></stop><stop offset="1" stop-color="#40c3ff"></stop></linearGradient><linearGradient id="j" x1="0.5" x2="0.5" y2="1" gradientUnits="objectBoundingBox"><stop offset="0" stop-color="#3ddc99"></stop><stop offset="0" stop-color="#abc874"></stop><stop offset="1" stop-color="#69bf74"></stop></linearGradient><linearGradient id="v" x1="0.5" x2="0.5" y2="1" gradientUnits="objectBoundingBox"><stop offset="0" stop-color="#f3f3f3"></stop><stop offset="1" stop-color="#fff"></stop></linearGradient></defs><g transform="translate(-33.512 -155.81)"><g transform="translate(442.293 299.755)"><path d="M409.57,292.321c-3.9-.724-13.315-.188-13.765,1.723-.408,1.807,8.281,3.987,12.179,4.567,3.933.513,7.372-.287,7.813-1.964S413.509,292.957,409.57,292.321Z" transform="translate(-346.771 -248.875)" fill="url(#a)"></path><path d="M392.384,308.409c-4.5-.362-15.091,1.445-15.406,3.761-.282,2.189,9.785,3.6,14.272,3.754,4.518.072,8.331-1.295,8.648-3.285S396.908,308.664,392.384,308.409Z" transform="translate(-351.72 -244.575)" fill="url(#a)"></path><path d="M384.814,317.529c-4.8.042-15.9,3.061-16.035,5.585-.106,2.381,10.7,2.843,15.475,2.564,4.8-.376,8.726-2.209,8.894-4.364S389.643,317.355,384.814,317.529Z" transform="translate(-353.875 -242.167)" fill="url(#a)"></path><path d="M478.275,269.58a19.843,19.843,0,0,0-2.863-.222c1.406-.544,2.813-1.171,3.741-1.638,2.371-1.24,3.977-2.912,3.524-3.815s-2.847-.664-5.283.607c-2.055,1.032-5.745,3.791-6.6,5.193-.7.162-1.169.378-1.233.661a.294.294,0,0,0,.014.109q-3.262.765-6.511,1.667c1.412-1.142,3.794-6.176,4.749-8.656,1.034-2.852.911-5.369-.426-5.61s-3.339,1.925-4.328,4.821c-1.015,2.815-1.806,9.093-.659,9.629-.268.076-.534.16-.8.239a1.043,1.043,0,0,0-.536.158q-6.252,1.832-12.423,4.185c1.764-1.591,4.683-6.3,6.007-8.744,1.571-3.053,1.91-5.879.561-6.325s-3.861,1.72-5.421,4.843c-1.58,3.01-3.431,9.874-2.325,10.676-.1.038-.2.075-.3.114a2.506,2.506,0,0,0-1.012.4q-5.746,2.3-11.386,5.053c1.776-1.748,4.674-7.371,5.959-10.219,1.463-3.458,1.607-6.555.095-6.912s-4.082,2.233-5.528,5.774c-1.514,3.5-2.972,11.429-1.533,11.866q-6.769,3.368-13.332,7.4c1.732-.813,5.421-8.367,6.956-11.934,1.537-3.827,1.679-7.223.057-7.578s-4.378,2.554-5.9,6.488c-1.632,3.939-3.112,12.9-1.444,13.094a.591.591,0,0,0,.314-.059q-5.952,3.664-11.7,7.867l-.035.027c1.437-3.029,2.959-9.169,3.611-12.381.759-4.312.087-7.816-1.781-7.755s-4.163,3.743-4.857,8.151c-.715,3.948-.342,11.92,1.043,13.481q-5.331,4.039-10.427,8.555c1.536-3.279,3.178-10.177,3.9-13.749.82-4.721.152-8.557-1.819-8.488s-4.435,4.12-5.2,8.97c-.821,4.5-.36,13.723,1.253,14.935q-4.069,3.717-7.953,7.751c.614-3.733.193-11.062-.192-14.783-.639-4.862-2.657-8.259-4.793-7.4s-3.439,5.673-2.648,10.587c.585,4.257,3.6,12.044,5.709,13.615-.932,1-1.858,2-2.771,3.026q-3.842,4.314-7.448,8.956c1.015-4.268,1.585-11.792,1.795-15.769.125-5.555-1.254-9.789-3.473-9.306s-4.341,5.62-4.365,11.331c-.158,5.107,1.852,14.96,3.815,16.66q-3.9,5.223-7.468,10.83c.695-4.7.668-12.717.583-16.957-.309-5.956-2.093-10.356-4.412-9.628s-4.168,6.441-3.73,12.57c.237,5.491,3.2,15.855,5.427,17.49-1.007,1.677-2,3.372-2.953,5.1q.837.591,1.681,1.173c.485-.9.988-1.785,1.487-2.674a1.211,1.211,0,0,0-.082.38c.1,2.565,11.563,1.942,16.585,1.164,5.038-.888,9.029-3.231,9.024-5.542s-4.043-3.889-9.134-3.232c-4.441.447-13.775,3.839-15.994,6.512a171.894,171.894,0,0,1,19.752-27.891q5.661-6.513,11.813-12.3c1.588,2.165,7.8,5.316,11.04,6.447,3.935,1.339,7.652,1.1,8.413-.62s-1.671-4.419-5.536-5.936a34.013,34.013,0,0,0-11.605-2.035q6-5.469,12.354-10.277,4.4-3.317,8.946-6.3c.813,1.816,6.841,4.985,9.844,6.146,3.416,1.274,6.666,1.21,7.376-.244s-1.36-3.834-4.739-5.222a30.456,30.456,0,0,0-10.446-2.014q5.642-3.6,11.469-6.7c.215,1.6,6.194,4.957,9.088,6.184,3.139,1.276,6.147,1.32,6.841,0s-1.174-3.569-4.283-4.939a28.359,28.359,0,0,0-9.914-2.15q6.2-3.213,12.554-5.869c.842,1.387,6.518,3.485,9.245,4.226,3.083.775,5.887.47,6.382-.8s-1.533-3.074-4.634-3.916a29.941,29.941,0,0,0-7.691-.839q5.717-2.245,11.525-4.035c.217,1.459,4.388,4.991,6.514,6.41,2.388,1.55,4.864,2.046,5.627,1.057s-.453-3.136-2.809-4.747a24.905,24.905,0,0,0-7.534-3.277c2.342-.693,4.692-1.322,7.046-1.906.917.971,5.426,2.151,7.594,2.513,2.488.378,4.689-.066,4.976-1.074S480.8,269.982,478.275,269.58Z" transform="translate(-356.978 -257.856)" fill="url(#a)"></path></g><g transform="translate(461.667 390.351)"><path d="M374.8,348.708c-2.315,1.878-4.563,9.069.927,10.964s5.976,3.236,4.934,5.72.033,4.289,2.16,4.11,3.477,2.622,8.284,4.257,11.081,4.764,13.6,4.023c-3.164-3.156-4.758-5.7-4.52-9.242s.8-7.118.8-7.118,1.634,9.189,4.18,13.665,6.523,4.05,9.572,3.622,6.271-2.013,7.348-2.065c-2.23-2.9-5.195-4.108-5.09-5.917s1.356-.912,3.228,1.7,2.661,4.1,4.708,3.694,7.151-1.91,8.327-4.021,3.319-3.645,4.681-3.378c-1.657-1.087-.562-3.423-1.221-5.714s-1.082-4.161-1.854-4.9c.628-2-.134-4.336-1.7-4.948s-8.107-1.2-8.107-1.2a10.613,10.613,0,0,1,7.552.136c.115-3.414-2.243-6.44-9.025-5.844a16.657,16.657,0,0,1,5.352-.586s-2.89-5.195-7.01-4.465-13.747,3.957-13.747,3.957a17.464,17.464,0,0,1,11.487-5.078c.027-2.96-3.029-6.747-5.7-7.132-1.132-.1-2.718.645-4.5,1.543a47.229,47.229,0,0,0-9.294,6.479c.3-1.964,6.661-7.467,11.392-8.84-4.722-3.267-9.543-1.441-12.219-1.148a11.048,11.048,0,0,1-5.845-1.008,10.685,10.685,0,0,0-9.284,1.839c-3.521,2.622-2.027,4.189-3.858,5.188s-5.666,8.118.753,10.014C377.569,347.033,376.3,347.492,374.8,348.708Z" transform="translate(-372.318 -329.589)" fill="url(#e)"></path><path d="M374.245,343.215c5.777,1.6,38.886,10.512,44.208,12.944-19.769-8.312-33.613-11.393-43.907-14.726C372.735,340.849,372.455,342.72,374.245,343.215Z" transform="translate(-372.13 -326.504)" fill="#2e8254"></path></g><g transform="translate(97.709 334.323)"><path d="M149.758,300.976c1.287-2.69.234-10.15-5.538-9.506s-6.787-.361-6.911-3.053-1.869-3.86-3.714-2.786-4.265-.876-9.309-.293-12.053.448-14.008,2.2c4.213,1.494,6.743,3.108,8.049,6.411s2.33,6.773,2.33,6.773-5.418-7.6-9.638-10.552-7.63-.863-10.2.832-4.8,4.508-5.752,5.017c3.26,1.667,6.455,1.484,7.136,3.162s-.835,1.406-3.645-.15-4.161-2.56-5.837-1.319-5.642,4.792-5.8,7.2-1.436,4.716-2.78,5.059c1.964.27,1.975,2.85,3.554,4.636s2.762,3.3,3.774,3.627c.289,2.074,1.98,3.86,3.661,3.74s7.839-2.391,7.839-2.391a10.617,10.617,0,0,1-6.882,3.116c1.36,3.133,4.788,4.856,10.659,1.408a16.662,16.662,0,0,1-4.585,2.825s4.838,3.453,8.247,1.027,10.721-9.47,10.721-9.47a17.463,17.463,0,0,1-8.2,9.514c1.247,2.685,5.629,4.8,8.206,4,1.063-.4,2.179-1.748,3.4-3.324a47.223,47.223,0,0,0,5.618-9.839c.57,1.9-2.815,9.6-6.5,12.871,5.668.927,9.239-2.79,11.531-4.2a11.06,11.06,0,0,1,5.712-1.6,10.685,10.685,0,0,0,7.6-5.643c2.056-3.877.034-4.654,1.26-6.341s1.637-9.764-4.975-8.723C147.977,303.675,148.926,302.718,149.758,300.976Z" transform="translate(-84.142 -285.227)" fill="url(#e)"></path><path d="M146.648,299.3c-5.9,1.033-39.636,7.18-45.487,7.266,21.425-.97,35.252-4.124,45.98-5.527C149.026,300.792,148.478,298.981,146.648,299.3Z" transform="translate(-79.667 -281.536)" fill="#008ac0"></path></g><g transform="translate(445.627 354.522)"><path d="M359.689,352.7c-1.171-23.684,12.323-40.719,29.276-47.5,20.929-8.371,44.579-.7,67.067-2.227-13.249,13.327-22.116,39.97-46.129,52.138C384.03,368.221,359.689,352.7,359.689,352.7Z" transform="translate(-359.618 -301.22)" fill="url(#g)"></path><g transform="translate(0.071 0.024)"><g transform="translate(4.71)"><path d="M413.929,346.7c.347-.3.685-.616,1.024-.927l-23.265-16.1,1.076-27.8c-.453.068-.9.145-1.355.224l-1.094,28.264Z" transform="translate(-356.326 -301.072)" fill="#005579"></path><path d="M377.1,338.956,402.86,354.8c.486-.212.974-.447,1.461-.678l-25.893-15.931-.717-31.109q-.669.4-1.326.834Z" transform="translate(-359.989 -299.702)" fill="#005579"></path><path d="M403.243,322.141l-.006.376,18.724,11.859c.274-.359.548-.717.816-1.077l-18.183-11.516c.1-6.812.269-16.141.424-20.511-.446-.013-.892-.025-1.337-.034C403.554,304.179,403.415,310.089,403.243,322.141Z" transform="translate(-352.928 -301.239)" fill="#005579"></path><path d="M427.741,320.358l.738-1.125-9.629-6.607,1.934-10.312c-.45-.033-.9-.066-1.349-.1l-2.07,11.027Z" transform="translate(-349.213 -300.983)" fill="#005579"></path><path d="M364.508,320.827c-.388.709-.753,1.432-1.105,2.166l2.349,20.416,14.554,11.384q1.23.155,2.506.254L367.024,342.7Z" transform="translate(-363.403 -296.088)" fill="#005579"></path></g><path d="M359.674,350.912c6.492-4.074,13.1-7.954,19.739-11.778s13.36-7.5,20.091-11.165c6.786-3.562,13.558-7.15,20.456-10.494s13.845-6.6,20.958-9.453c-3.429,1.716-6.883,3.362-10.278,5.133-3.424,1.709-6.824,3.467-10.214,5.244q-10.185,5.3-20.287,10.755c-6.777,3.559-13.482,7.256-20.225,10.88Z" transform="translate(-359.674 -299.455)" fill="#005579"></path></g></g><g transform="translate(92.497 360.912)"><path d="M174.855,313.142c1.867,23.639-11.122,41.064-27.867,48.339-20.674,8.983-44.539,2.007-66.973,4.2,12.851-13.711,20.931-40.6,44.576-53.47C150.067,298.344,174.855,313.142,174.855,313.142Z" transform="translate(-80.015 -306.279)" fill="url(#g)"></path><g transform="translate(11.878 0.071)"><path d="M106.133,317.778c-.338.314-.666.637-1,.956l23.729,15.4-.259,27.823c.451-.082.9-.173,1.348-.265l.263-28.284Z" transform="translate(-85.287 -303.327)" fill="#005579"></path><path d="M143.88,325.02l-26.214-15.085c-.48.226-.96.476-1.441.722l26.351,15.162,1.632,31.075q.657-.424,1.3-.873Z" transform="translate(-82.371 -305.39)" fill="#005579"></path><path d="M116.4,339.608l0-.376-19.065-11.3c-.263.368-.525.733-.784,1.1L115.064,340c.1,6.812.206,16.142.179,20.514.446,0,.892,0,1.337-.006C116.62,357.571,116.586,351.66,116.4,339.608Z" transform="translate(-87.545 -300.658)" fill="#005579"></path><path d="M90.122,339.041c-.235.385-.469.765-.7,1.147l9.818,6.32-1.63,10.365,1.351.061,1.745-11.083Z" transform="translate(-89.42 -297.736)" fill="#005579"></path><path d="M155.147,340c.365-.719.71-1.452,1.041-2.2l-2.949-20.338-14.883-10.951q-1.233-.119-2.512-.181l16.145,11.882Z" transform="translate(-77.212 -306.336)" fill="#005579"></path><path d="M171.754,311.712c-6.369,4.264-12.861,8.336-19.384,12.354s-13.135,7.892-19.755,11.751c-6.677,3.759-13.342,7.545-20.139,11.091s-13.644,7-20.67,10.065c3.376-1.816,6.781-3.563,10.123-5.433,3.372-1.807,6.719-3.665,10.054-5.541q10.025-5.594,19.962-11.348c6.67-3.756,13.262-7.649,19.9-11.47Z" transform="translate(-88.793 -304.922)" fill="#005579"></path></g></g><g transform="translate(103.08 282.009)"><path d="M179.325,302.85c-19.992,12.752-41.475,9.472-55.764-1.893-17.642-14.032-22.694-38.377-35.167-57.152,18.141,4.9,45.678-.6,68.145,14.234C180.745,274.017,179.325,302.85,179.325,302.85Z" transform="translate(-88.394 -243.805)" fill="url(#a)"></path><g transform="translate(9.596 2.559)"><path d="M137.858,250.078c-.437-.152-.875-.289-1.312-.431l-2.453,28.184L109.41,290.672c.284.36.575.714.866,1.066l25.093-13.054Z" transform="translate(-92.463 -244.828)" fill="#008ac0"></path><path d="M149.266,286.824l1-30.227c-.424-.317-.871-.625-1.313-.933l-1.007,30.384L121.28,302.087q.684.381,1.382.739Z" transform="translate(-89.342 -243.245)" fill="#008ac0"></path><path d="M121.747,269.384l.331-.182,1.022-22.14c-.447-.059-.893-.12-1.34-.174l-.991,21.5c-5.968,3.29-14.154,7.765-18.026,9.794q.314.593.633,1.178C105.992,278.014,111.194,275.206,121.747,269.384Z" transform="translate(-94.217 -245.553)" fill="#008ac0"></path><path d="M108.216,245.913l-1.343-.082-.966,11.636-9.916,3.43c.193.408.388.815.58,1.223l10.6-3.666Z" transform="translate(-95.992 -245.831)" fill="#008ac0"></path><path d="M139.736,303.88c.807-.014,1.617-.056,2.429-.114l16.569-12.157,2.677-18.283q-.474-1.144-1.022-2.3l-2.9,19.835Z" transform="translate(-84.489 -239.206)" fill="#008ac0"></path><path d="M176.532,300.825c-6.757-3.62-13.4-7.438-20.012-11.31s-13.137-7.887-19.654-11.92c-6.455-4.129-12.928-8.233-19.251-12.568s-12.588-8.757-18.595-13.52c3.189,2.128,6.33,4.313,9.551,6.384,3.181,2.128,6.393,4.209,9.616,6.273q9.647,6.223,19.394,12.292c6.45,4.124,12.983,8.115,19.474,12.176Z" transform="translate(-95.196 -244.338)" fill="#008ac0"></path></g></g><g transform="translate(50.312 332.984)"><path d="M104.382,306.1c3.445-1.97,12.507-4.571,13.562-2.915.981,1.572-6.5,6.5-9.99,8.329-3.543,1.782-7.054,2.162-8.022.724S100.872,308,104.382,306.1Z" transform="translate(-32.658 -279.303)" fill="url(#j)"></path><path d="M126.5,315.359c4.125-1.826,14.724-3.615,15.783-1.533.988,1.974-8.051,6.623-12.234,8.252-4.24,1.558-8.29,1.526-9.247-.248S122.315,317.092,126.5,315.359Z" transform="translate(-27.157 -276.613)" fill="url(#j)"></path><path d="M136.963,321.23c4.548-1.546,16.025-2.358,16.979-.018.887,2.211-9.167,6.215-13.764,7.526-4.655,1.228-8.965.792-9.835-1.186S132.347,322.658,136.963,321.23Z" transform="translate(-24.635 -274.81)" fill="url(#j)"></path><path d="M52.647,300.322a19.685,19.685,0,0,1,2.63-1.156c-1.507-.051-3.041-.178-4.072-.312-2.647-.389-4.715-1.438-4.586-2.44s2.469-1.566,5.188-1.168c2.28.3,6.675,1.684,7.947,2.724.712-.078,1.229-.03,1.382.216a.3.3,0,0,1,.023.107q3.332-.354,6.7-.573c-1.71-.613-5.619-4.58-7.339-6.605-1.917-2.352-2.631-4.769-1.449-5.437s3.788.716,5.676,3.123c1.888,2.323,4.706,7.988,3.8,8.872.278-.016.558-.025.836-.04a1.048,1.048,0,0,1,.558-.027q6.506-.333,13.107-.148c-2.19-.919-6.5-4.407-8.555-6.271-2.491-2.364-3.741-4.922-2.616-5.787s4.212.35,6.715,2.784c2.484,2.32,6.5,8.189,5.717,9.311l.321.009a2.51,2.51,0,0,1,1.086.044q6.185.277,12.416,1.014c-2.253-1.065-6.845-5.416-9-7.681-2.521-2.781-3.679-5.657-2.368-6.493s4.588.76,7.122,3.626c2.585,2.805,6.578,9.809,5.363,10.7q7.5.947,15.027,2.585c-1.9-.2-7.878-6.11-10.5-8.971-2.714-3.1-3.967-6.264-2.554-7.135s4.975.967,7.714,4.177c2.84,3.181,7.193,11.148,5.683,11.886a.6.6,0,0,1-.317.048q6.829,1.495,13.636,3.568l.04.013c-2.354-2.384-5.817-7.679-7.492-10.5-2.139-3.82-2.661-7.35-.877-7.909s5.164,2.161,7.273,6.093c1.978,3.492,4.256,11.139,3.463,13.072q6.365,2.052,12.665,4.635c-2.531-2.589-6.357-8.559-8.216-11.693-2.331-4.187-2.967-8.027-1.084-8.613s5.546,2.426,7.867,6.752c2.261,3.977,4.867,12.837,3.745,14.513q5.07,2.165,10.065,4.693c-1.811-3.322-3.832-10.38-4.7-14.02-1-4.8-.216-8.672,2.083-8.57s5.116,4.221,5.993,9.12c.853,4.212.571,12.559-.9,14.738q1.813.949,3.615,1.941,5.049,2.8,9.985,6c-2.367-3.694-5.387-10.61-6.9-14.3-1.95-5.2-2.046-9.654.21-9.929s5.951,3.874,7.858,9.256c1.834,4.769,3.188,14.734,1.894,16.986q5.4,3.645,10.622,7.761c-2.2-4.208-4.825-11.785-6.143-15.815-1.673-5.725-1.441-10.467.988-10.543s6.06,4.7,7.667,10.634c1.588,5.263,2.209,16.025.648,18.3,1.5,1.252,3,2.525,4.47,3.841q-.6.834-1.2,1.662c-.755-.691-1.522-1.359-2.286-2.033a1.2,1.2,0,0,1,.2.331c.755,2.454-10.276,5.649-15.273,6.571-5.049.825-9.588-.071-10.346-2.254s2.532-5.005,7.555-6.064c4.341-1.044,14.272-.922,17.248.869A171.94,171.94,0,0,0,160.836,320.6q-7.493-4.281-15.212-7.718c-.783,2.566-5.611,7.592-8.293,9.727-3.274,2.563-6.862,3.565-8.146,2.191s.119-4.723,3.267-7.43a34.018,34.018,0,0,1,10.284-5.75q-7.466-3.183-15.053-5.625c-3.5-1.12-7.007-2.108-10.522-2.992-.169,1.983-4.813,6.963-7.266,9.049-2.805,2.33-5.893,3.341-7.044,2.2s.02-4.068,2.752-6.493a30.437,30.437,0,0,1,9.2-5.347q-6.513-1.54-13.038-2.546c.326,1.585-4.212,6.724-6.541,8.837-2.542,2.239-5.366,3.274-6.456,2.258s-.069-3.756,2.412-6.075a28.335,28.335,0,0,1,8.651-5.3q-6.911-.989-13.788-1.4c-.337,1.586-5,5.441-7.334,7.039-2.654,1.75-5.4,2.387-6.288,1.348s.433-3.407,3.082-5.226a29.973,29.973,0,0,1,6.984-3.329q-6.138-.231-12.21-.006c.277,1.449-2.494,6.159-4.035,8.2-1.744,2.249-3.916,3.535-4.963,2.853s-.606-3.109,1.086-5.408a24.905,24.905,0,0,1,6.031-5.58c-2.439.119-4.865.3-7.281.525-.544,1.22-4.412,3.82-6.339,4.878-2.225,1.178-4.448,1.485-5.052.63S50.392,301.534,52.647,300.322Z" transform="translate(-46.613 -284.167)" fill="url(#j)"></path></g><g transform="translate(96.223 229.448)"><path d="M127.957,243.747c3.967.114,13.057,2.619,13.093,4.582.019,1.853-8.936,2.153-12.867,1.9-3.953-.327-7.146-1.833-7.224-3.565S123.973,243.538,127.957,243.747Z" transform="translate(-72.974 -191.265)" fill="url(#j)"></path><path d="M141.948,263.254c4.472.592,14.45,4.591,14.269,6.92-.186,2.2-10.324,1.455-14.743.664-4.43-.88-7.87-3.02-7.762-5.032S137.472,262.551,141.948,263.254Z" transform="translate(-69.62 -186.182)" fill="url(#j)"></path><path d="M147.7,273.862c4.686,1.052,14.9,6.343,14.5,8.837-.4,2.349-11.062.525-15.668-.753-4.614-1.379-8.064-4-7.775-6.139S143.021,272.675,147.7,273.862Z" transform="translate(-68.297 -183.474)" fill="url(#j)"></path><path d="M87.442,211.339a19.7,19.7,0,0,1,2.845.385c-1.259-.829-2.5-1.738-3.312-2.39-2.056-1.711-3.274-3.684-2.641-4.472s2.923-.049,5.035,1.708c1.792,1.441,4.819,4.915,5.363,6.466.647.3,1.063.616,1.065.906a.308.308,0,0,1-.035.1q3.027,1.436,6.013,3c-1.139-1.415-2.408-6.836-2.819-9.462-.412-3.007.24-5.441,1.6-5.4s2.858,2.585,3.216,5.624c.4,2.967-.149,9.27-1.383,9.552.245.131.489.27.734.4a1.053,1.053,0,0,1,.49.268q5.725,3.107,11.262,6.708c-1.389-1.927-3.25-7.15-4.031-9.812-.893-3.315-.628-6.151.784-6.3s3.411,2.5,4.28,5.877c.911,3.275,1.274,10.375.024,10.926.09.059.181.116.27.176a2.5,2.5,0,0,1,.9.6q5.132,3.459,10.067,7.338c-1.369-2.083-3.018-8.19-3.674-11.245-.7-3.688-.191-6.744,1.364-6.776s3.519,3.041,4.187,6.809c.744,3.741.5,11.8-1,11.921q5.907,4.719,11.474,10.041c-1.522-1.159-3.536-9.321-4.286-13.131-.7-4.064-.12-7.414,1.541-7.419s3.74,3.418,4.405,7.585c.765,4.194.326,13.262-1.346,13.106a.607.607,0,0,1-.3-.125q5.049,4.835,9.777,10.153l.028.033c-.767-3.262-.961-9.586-.921-12.863.165-4.375,1.56-7.66,3.373-7.205s3.28,4.537,3.031,8.991c-.133,4.01-2.175,11.724-3.86,12.959q4.363,5.071,8.392,10.558c-.81-3.529-.962-10.617-.916-14.26.192-4.789,1.653-8.4,3.565-7.915s3.468,4.961,3.194,9.863c-.145,4.572-2.537,13.491-4.37,14.336q3.2,4.49,6.142,9.253c.187-3.779,2.141-10.856,3.3-14.412,1.648-4.62,4.337-7.513,6.245-6.229s2.166,6.269.359,10.907c-1.468,4.039-6.058,11.014-8.448,12.108.7,1.171,1.4,2.348,2.073,3.541q2.847,5.026,5.394,10.324c-.093-4.386.935-11.862,1.567-15.795,1.047-5.456,3.286-9.306,5.355-8.366s3.059,6.41,1.881,12c-.922,5.027-4.961,14.235-7.238,15.483q2.711,5.928,5.019,12.16c.311-4.74,2.025-12.572,3-16.7,1.557-5.759,4.227-9.684,6.339-8.483s2.719,7.174,1,13.073c-1.388,5.318-6.468,14.826-8.987,15.955.63,1.851,1.242,3.717,1.812,5.608q-.943.4-1.891.793c-.283-.984-.59-1.954-.889-2.928a1.217,1.217,0,0,1,0,.389c-.635,2.488-11.713-.537-16.459-2.355-4.739-1.927-8.146-5.058-7.654-7.316s4.769-2.95,9.607-1.236c4.249,1.372,12.659,6.655,14.265,9.734a171.8,171.8,0,0,0-13.435-31.424c-2.773-5.04-5.774-9.875-8.957-14.517-2.007,1.782-8.747,3.553-12.148,3.978-4.13.48-7.713-.535-8.093-2.378s2.564-3.968,6.661-4.636a34.007,34.007,0,0,1,11.773.455q-4.71-6.61-9.913-12.649-3.6-4.17-7.419-8.039c-1.178,1.605-7.738,3.434-10.918,3.935-3.608.525-6.771-.221-7.158-1.792s2.138-3.461,5.733-4.107a30.484,30.484,0,0,1,10.635.231q-4.755-4.71-9.8-8.97c-.548,1.523-7.1,3.543-10.187,4.131-3.337.586-6.287,0-6.689-1.437s1.9-3.242,5.226-3.928a28.347,28.347,0,0,1,10.145-.013q-5.382-4.446-11.036-8.381c-1.116,1.177-7.107,2.033-9.928,2.184-3.176.11-5.854-.779-6.069-2.129s2.146-2.681,5.354-2.853a29.92,29.92,0,0,1,7.7.8q-5.117-3.4-10.416-6.372c-.52,1.38-5.34,3.956-7.719,4.894-2.661,1.012-5.184.976-5.723-.153s1.1-2.969,3.746-4.048a24.865,24.865,0,0,1,8.055-1.618c-2.143-1.171-4.308-2.281-6.488-3.347-1.1.757-5.757.96-7.952.858-2.513-.154-4.571-1.052-4.64-2.1S84.885,211.2,87.442,211.339Z" transform="translate(-82.965 -202.189)" fill="url(#j)"></path></g><g transform="translate(439.676 238.549)"><path d="M401.284,251.527c-3.964.192-13,2.875-13,4.838.018,1.853,8.975,1.978,12.9,1.648,3.946-.4,7.109-1.973,7.153-3.707S405.264,251.24,401.284,251.527Z" transform="translate(-346.129 -198.324)" fill="url(#j)"></path><path d="M388.17,271.307c-4.461.678-14.357,4.871-14.131,7.2.229,2.2,10.35,1.252,14.753.376,4.413-.967,7.81-3.174,7.662-5.183S392.631,270.516,388.17,271.307Z" transform="translate(-349.875 -193.178)" fill="url(#j)"></path><path d="M382.813,282.029c-4.664,1.143-14.777,6.631-14.323,9.117.443,2.342,11.071.309,15.651-1.058,4.586-1.469,7.984-4.154,7.654-6.29S387.474,280.749,382.813,282.029Z" transform="translate(-351.337 -190.447)" fill="url(#j)"></path><path d="M459.711,218.288a19.719,19.719,0,0,0-2.838.441c1.243-.854,2.468-1.786,3.265-2.453,2.022-1.753,3.2-3.749,2.554-4.524s-2.924.008-5,1.8c-1.763,1.476-4.722,5.01-5.234,6.571-.642.317-1.052.637-1.048.926a.326.326,0,0,0,.038.1q-3,1.495-5.954,3.118c1.113-1.436,2.275-6.883,2.635-9.516.352-3.013-.347-5.435-1.7-5.363s-2.808,2.641-3.1,5.686c-.342,2.974.33,9.265,1.57,9.524-.244.135-.484.278-.726.416a1.055,1.055,0,0,0-.485.277q-5.662,3.219-11.129,6.927c1.351-1.954,3.109-7.212,3.839-9.889.827-3.333.506-6.162-.908-6.286s-3.362,2.561-4.164,5.959c-.846,3.293-1.071,10.4.189,10.925l-.266.181a2.478,2.478,0,0,0-.892.621q-5.066,3.558-9.922,7.534c1.327-2.11,2.857-8.248,3.453-11.315.629-3.7.058-6.748-1.5-6.749s-3.461,3.111-4.054,6.889c-.671,3.755-.268,11.806,1.233,11.9q-5.816,4.835-11.277,10.263c1.5-1.188,3.354-9.389,4.03-13.212.618-4.078-.025-7.415-1.685-7.388s-3.674,3.491-4.257,7.67c-.683,4.209-.067,13.267,1.6,13.077a.594.594,0,0,0,.293-.13q-4.952,4.933-9.576,10.342l-.028.033c.7-3.276.773-9.6.669-12.877-.25-4.371-1.71-7.63-3.514-7.138s-3.191,4.6-2.856,9.048c.212,4.007,2.4,11.68,4.112,12.881q-4.263,5.157-8.185,10.721c.743-3.544.757-10.634.638-14.277-.285-4.784-1.816-8.363-3.719-7.844s-3.371,5.028-3,9.924c.235,4.568,2.8,13.439,4.65,14.248q-3.109,4.552-5.961,9.37c-.26-3.774-2.352-10.811-3.582-14.345-1.738-4.585-4.482-7.426-6.365-6.105s-2.044,6.311-.147,10.912c1.547,4.01,6.273,10.894,8.683,11.941-.677,1.183-1.348,2.374-2,3.581q-2.749,5.081-5.192,10.427c.009-4.388-1.166-11.842-1.876-15.761-1.153-5.435-3.468-9.239-5.518-8.259s-2.933,6.466-1.644,12.03c1.018,5.008,5.236,14.135,7.539,15.339-1.729,3.986-3.333,8.068-4.78,12.256-.4-4.734-2.271-12.53-3.327-16.637-1.67-5.726-4.415-9.6-6.5-8.357s-2.578,7.225-.744,13.089c1.493,5.291,6.758,14.7,9.3,15.777-.594,1.864-1.168,3.741-1.7,5.642q.951.383,1.907.757c.264-.989.551-1.965.831-2.944a1.2,1.2,0,0,0,.008.388c.683,2.475,11.7-.764,16.41-2.675,4.7-2.021,8.046-5.217,7.51-7.467s-4.827-2.856-9.63-1.047c-4.221,1.455-12.527,6.9-14.073,10.01a171.942,171.942,0,0,1,12.819-31.68c2.676-5.094,5.58-9.986,8.672-14.69,2.041,1.743,8.816,3.382,12.224,3.741,4.139.4,7.7-.686,8.046-2.536s-2.641-3.916-6.751-4.505a33.982,33.982,0,0,0-11.763.685q4.581-6.7,9.664-12.839,3.518-4.24,7.261-8.183c1.209,1.581,7.8,3.281,10.993,3.722,3.617.455,6.764-.354,7.122-1.932s-2.205-3.419-5.812-3.994a30.452,30.452,0,0,0-10.628.438q4.662-4.8,9.621-9.159c.578,1.511,7.167,3.4,10.267,3.932,3.348.52,6.286-.128,6.658-1.57s-1.963-3.2-5.3-3.824a28.349,28.349,0,0,0-10.143.187q5.293-4.55,10.87-8.6c1.138,1.156,7.145,1.894,9.969,1.989,3.178.048,5.836-.894,6.026-2.248s-2.2-2.64-5.408-2.747a29.986,29.986,0,0,0-7.679.95q5.051-3.5,10.289-6.572c.547,1.369,5.417,3.85,7.813,4.742,2.68.959,5.2.874,5.719-.265s-1.161-2.948-3.824-3.975a24.877,24.877,0,0,0-8.084-1.46c2.119-1.212,4.263-2.364,6.42-3.473,1.115.735,5.774.847,7.968.7,2.51-.2,4.549-1.14,4.6-2.187S462.265,218.1,459.711,218.288Z" transform="translate(-354.906 -209.394)" fill="url(#j)"></path></g><path d="M206.074,211.374h-50.36V168.3c0-13.485,11.273-24.418,25.18-24.418h0c13.907,0,25.18,10.934,25.18,24.418Z" transform="translate(32.389 11.927)" fill="#e6e6e6"></path><g transform="translate(90.332 206.497)"><g transform="translate(0)"><g transform="translate(0 207.727)"><path d="M466.726,351.277c-1.084-1.547-6.019-2.786-11.038-2.786H146.331c-5.019,0-9.955,1.239-11.038,2.786L78.717,428.671C77.038,431.068,80.591,442,86.675,442H515.344c6.085,0,9.636-10.934,7.958-13.331Z" transform="translate(-78.301 -348.491)" fill="#f1f2f2"></path><path d="M466.726,351.277c-1.084-1.547-6.019-2.786-11.038-2.786H146.331c-5.019,0-9.955,1.239-11.038,2.786L78.717,428.671c-1.678,2.4,1.874,4.367,7.958,4.367H515.344c6.085,0,9.636-1.97,7.958-4.367Z" transform="translate(-78.301 -348.491)" fill="#d1d3d4"></path><path d="M286.266,419.891h-50.5a5.387,5.387,0,0,1-5.387-5.387h61.272A5.387,5.387,0,0,1,286.266,419.891Z" transform="translate(-38.308 -331.132)" fill="#d1d3d4"></path><path d="M133.272,348.491a31.051,31.051,0,0,0-5.311.456c1.348.83,4.127,1.394,7.465,1.394H440.474c3.338,0,6.118-.563,7.465-1.394a31.052,31.052,0,0,0-5.311-.456Z" transform="translate(-65.242 -348.491)" fill="#a9acad"></path><path d="M391.53,348.491H165.323l-1.009,2.037c-.256.517.908.937,2.6.937H389.863c1.694,0,2.869-.421,2.626-.937Z" transform="translate(-55.691 -348.491)" fill="#06386b"></path><g transform="translate(171.239 61.392)"><path d="M316.761,413.943l-6.247-15.9a1.479,1.479,0,0,0-1.378-.938H221.509a1.479,1.479,0,0,0-1.379.943l-6.183,15.9a.888.888,0,0,0,.827,1.209H315.935A.888.888,0,0,0,316.761,413.943Z" transform="translate(-213.886 -397.1)" fill="#edeceb"></path><g transform="translate(6.036)"><path d="M309.47,398.579l-.212-.541a1.479,1.479,0,0,0-1.378-.938H220.253a1.479,1.479,0,0,0-1.379.943l-.208.536Z" transform="translate(-218.665 -397.1)" fill="#cecece"></path></g></g><g transform="translate(41.979 7.962)"><g opacity="0.1"><path d="M470.944,402.273H113.529A1.748,1.748,0,0,1,111.9,399.7l25.943-41.976a6.086,6.086,0,0,1,5.216-2.809H441.414a6.084,6.084,0,0,1,5.216,2.809L472.574,399.7A1.749,1.749,0,0,1,470.944,402.273Z" transform="translate(-111.506 -354.764)" fill="#242424"></path><path d="M470.976,402.452H113.561a2.026,2.026,0,0,1-1.758-.976,1.721,1.721,0,0,1-.006-1.822l25.944-41.977a6.205,6.205,0,0,1,5.35-2.881H441.447a6.2,6.2,0,0,1,5.35,2.881l25.944,41.977a1.721,1.721,0,0,1-.006,1.822A2.026,2.026,0,0,1,470.976,402.452ZM143.091,355.091a5.891,5.891,0,0,0-5.081,2.736L112.066,399.8a1.439,1.439,0,0,0,.008,1.526,1.715,1.715,0,0,0,1.488.827H470.976a1.715,1.715,0,0,0,1.488-.827,1.439,1.439,0,0,0,.008-1.526l-25.943-41.977a5.893,5.893,0,0,0-5.082-2.736Z" transform="translate(-111.539 -354.795)" fill="#0c0c0c"></path></g><g transform="translate(5.594 2.608)"><g transform="translate(23.471)"><path d="M151.27,360.077H136.189a1.556,1.556,0,0,1-1.417-2.328l.066-.109a1.653,1.653,0,0,1,1.417-.781h15.074a1.558,1.558,0,0,1,1.459,2.253l-.057.109A1.646,1.646,0,0,1,151.27,360.077Z" transform="translate(-134.552 -356.86)" fill="#25517e"></path></g><g transform="translate(19.375 4.233)"><path d="M147.949,365.972h-15a1.555,1.555,0,0,1-1.417-2.328l1.6-2.653a1.651,1.651,0,0,1,1.417-.779h14.81a1.558,1.558,0,0,1,1.457,2.254l-1.411,2.653A1.643,1.643,0,0,1,147.949,365.972Z" transform="translate(-131.309 -360.212)" fill="#25517e"></path></g><g transform="translate(15.146 10.975)"><path d="M156.286,371.625H129.6a1.555,1.555,0,0,1-1.417-2.328l1.792-2.968a1.651,1.651,0,0,1,1.417-.779h26.349a1.56,1.56,0,0,1,1.48,2.21l-1.452,2.967A1.641,1.641,0,0,1,156.286,371.625Z" transform="translate(-127.961 -365.55)" fill="#25517e"></path></g><g transform="translate(10.585 18.18)"><path d="M159.318,377.676H125.986a1.556,1.556,0,0,1-1.417-2.329l2-3.312a1.653,1.653,0,0,1,1.417-.78h32.883a1.562,1.562,0,0,1,1.493,2.187l-1.552,3.312A1.64,1.64,0,0,1,159.318,377.676Z" transform="translate(-124.349 -371.255)" fill="#25517e"></path></g><g transform="translate(5.829 25.685)"><path d="M144.708,383.985H122.22a1.556,1.556,0,0,1-1.417-2.328l2.224-3.682a1.651,1.651,0,0,1,1.417-.779h22.145a1.559,1.559,0,0,1,1.47,2.233l-1.881,3.68A1.642,1.642,0,0,1,144.708,383.985Z" transform="translate(-120.583 -377.197)" fill="#25517e"></path></g><g transform="translate(0 33.632)"><path d="M134.9,391.979H117.6a1.555,1.555,0,0,1-1.417-2.328l3.252-5.383a1.65,1.65,0,0,1,1.417-.779h16.9a1.558,1.558,0,0,1,1.457,2.256l-2.862,5.382A1.644,1.644,0,0,1,134.9,391.979Z" transform="translate(-115.968 -383.489)" fill="#25517e"></path></g><g transform="translate(24.35 33.632)"><path d="M154.295,391.979h-17.41a1.559,1.559,0,0,1-1.465-2.243l2.8-5.382a1.643,1.643,0,0,1,1.465-.865H156.7a1.563,1.563,0,0,1,1.5,2.162l-2.41,5.383A1.637,1.637,0,0,1,154.295,391.979Z" transform="translate(-135.248 -383.489)" fill="#25517e"></path></g><g transform="translate(48.836 33.632)"><path d="M173.784,391.979H156.272a1.563,1.563,0,0,1-1.509-2.148l2.344-5.382a1.636,1.636,0,0,1,1.509-.96h17.122a1.567,1.567,0,0,1,1.545,2.061l-1.954,5.381A1.632,1.632,0,0,1,173.784,391.979Z" transform="translate(-154.636 -383.489)" fill="#25517e"></path></g><g transform="translate(224.644 33.632)"><path d="M320.172,391.979H296.408a1.614,1.614,0,0,1-1.613-1.3l-.935-5.381a1.581,1.581,0,0,1,1.613-1.807h23.261a1.622,1.622,0,0,1,1.584,1.171l1.437,5.383A1.573,1.573,0,0,1,320.172,391.979Z" transform="translate(-293.838 -383.489)" fill="#25517e"></path></g><g transform="translate(254.68 33.632)"><path d="M338.378,391.979H320.756a1.623,1.623,0,0,1-1.58-1.156l-1.5-5.381a1.572,1.572,0,0,1,1.579-1.953h17.233a1.63,1.63,0,0,1,1.55,1.061l1.891,5.383A1.567,1.567,0,0,1,338.378,391.979Z" transform="translate(-317.62 -383.489)" fill="#25517e"></path></g><g transform="translate(302.828 33.632)"><path d="M377.226,391.979H359.788a1.637,1.637,0,0,1-1.5-.945l-2.41-5.383a1.563,1.563,0,0,1,1.5-2.162h17.046a1.644,1.644,0,0,1,1.465.865l2.8,5.382A1.558,1.558,0,0,1,377.226,391.979Z" transform="translate(-355.743 -383.489)" fill="#25517e"></path></g><g transform="translate(280.301 37.813)"><path d="M357.5,391.135H339.987a1.631,1.631,0,0,1-1.543-1.046L338,388.862a1.567,1.567,0,0,1,1.545-2.062h17.424a1.637,1.637,0,0,1,1.509.96l.534,1.226A1.563,1.563,0,0,1,357.5,391.135Z" transform="translate(-337.907 -386.8)" fill="#25517e"></path></g><g transform="translate(329.109 37.813)"><path d="M396.136,391.135h-17.3a1.645,1.645,0,0,1-1.457-.853l-.652-1.226a1.558,1.558,0,0,1,1.457-2.256h17.207a1.652,1.652,0,0,1,1.417.781l.74,1.226A1.555,1.555,0,0,1,396.136,391.135Z" transform="translate(-376.552 -386.8)" fill="#25517e"></path></g><g transform="translate(73.18 33.632)"><path d="M199.3,391.979h-23.75a1.567,1.567,0,0,1-1.55-2.046l1.892-5.383a1.628,1.628,0,0,1,1.55-1.061h23.246a1.574,1.574,0,0,1,1.586,1.925l-1.388,5.382A1.621,1.621,0,0,1,199.3,391.979Z" transform="translate(-173.911 -383.489)" fill="#25517e"></path></g><g transform="translate(103.671 33.632)"><path d="M314.89,391.979h-115.2a1.575,1.575,0,0,1-1.591-1.908l1.326-5.382a1.619,1.619,0,0,1,1.591-1.2h113a1.611,1.611,0,0,1,1.615,1.317l.871,5.382A1.581,1.581,0,0,1,314.89,391.979Z" transform="translate(-198.053 -383.489)" fill="#25517e"></path></g><g transform="translate(41.052 4.233)"><path d="M165.228,365.972H150.109a1.558,1.558,0,0,1-1.464-2.242l1.379-2.653a1.643,1.643,0,0,1,1.465-.865h14.927a1.562,1.562,0,0,1,1.5,2.162l-1.187,2.653A1.639,1.639,0,0,1,165.228,365.972Z" transform="translate(-148.473 -360.212)" fill="#25517e"></path></g><g transform="translate(62.76 4.233)"><path d="M182.517,365.972H167.3a1.563,1.563,0,0,1-1.509-2.148l1.157-2.653a1.635,1.635,0,0,1,1.509-.959h15.028a1.567,1.567,0,0,1,1.545,2.061l-.965,2.654A1.629,1.629,0,0,1,182.517,365.972Z" transform="translate(-165.661 -360.212)" fill="#25517e"></path></g><g transform="translate(84.176 4.233)"><path d="M199.556,365.972h-15.3a1.567,1.567,0,0,1-1.548-2.047l.936-2.654a1.626,1.626,0,0,1,1.548-1.06H200.3a1.572,1.572,0,0,1,1.579,1.954l-.744,2.653A1.622,1.622,0,0,1,199.556,365.972Z" transform="translate(-182.618 -360.212)" fill="#25517e"></path></g><g transform="translate(105.897 4.233)"><path d="M216.819,365.972H201.45a1.572,1.572,0,0,1-1.583-1.937l.711-2.654a1.623,1.623,0,0,1,1.584-1.169H217.34a1.579,1.579,0,0,1,1.607,1.838l-.52,2.654A1.614,1.614,0,0,1,216.819,365.972Z" transform="translate(-199.816 -360.212)" fill="#25517e"></path></g><g transform="translate(127.546 4.233)"><path d="M234.007,365.972H218.591a1.578,1.578,0,0,1-1.609-1.821l.489-2.655a1.613,1.613,0,0,1,1.609-1.284H234.3a1.584,1.584,0,0,1,1.624,1.718l-.3,2.654A1.605,1.605,0,0,1,234.007,365.972Z" transform="translate(-216.957 -360.212)" fill="#25517e"></path></g><g transform="translate(149.266 4.233)"><path d="M251.232,365.972H235.789a1.586,1.586,0,0,1-1.627-1.7l.266-2.653a1.6,1.6,0,0,1,1.627-1.406H251.3a1.592,1.592,0,0,1,1.633,1.6l-.073,2.653A1.6,1.6,0,0,1,251.232,365.972Z" transform="translate(-234.155 -360.212)" fill="#25517e"></path></g><g transform="translate(171.022 4.233)"><path d="M268.461,365.972H253.014a1.593,1.593,0,0,1-1.633-1.577l.042-2.653a1.6,1.6,0,0,1,1.634-1.529h15.254a1.6,1.6,0,0,1,1.632,1.47l.15,2.653A1.589,1.589,0,0,1,268.461,365.972Z" transform="translate(-251.381 -360.212)" fill="#25517e"></path></g><g transform="translate(192.306 4.233)"><path d="M285.477,365.972H270.047a1.6,1.6,0,0,1-1.632-1.455l-.178-2.652a1.589,1.589,0,0,1,1.632-1.653h15.239a1.607,1.607,0,0,1,1.619,1.349l.371,2.654A1.582,1.582,0,0,1,285.477,365.972Z" transform="translate(-268.233 -360.212)" fill="#25517e"></path></g><g transform="translate(213.854 4.233)"><path d="M302.727,365.972h-15.4a1.61,1.61,0,0,1-1.618-1.331l-.4-2.654a1.581,1.581,0,0,1,1.617-1.776h15.2a1.617,1.617,0,0,1,1.6,1.23l.594,2.653A1.575,1.575,0,0,1,302.727,365.972Z" transform="translate(-285.294 -360.212)" fill="#25517e"></path></g><g transform="translate(235.753 4.233)"><path d="M320.237,365.972H304.9a1.617,1.617,0,0,1-1.594-1.211l-.629-2.653a1.576,1.576,0,0,1,1.594-1.9h15.147a1.624,1.624,0,0,1,1.567,1.115l.822,2.654A1.57,1.57,0,0,1,320.237,365.972Z" transform="translate(-302.634 -360.212)" fill="#25517e"></path></g><g transform="translate(257.025 4.233)"><path d="M337.227,365.972H321.961a1.626,1.626,0,0,1-1.564-1.1l-.849-2.654a1.569,1.569,0,0,1,1.562-2.006h15.074a1.633,1.633,0,0,1,1.531,1.01l1.042,2.654A1.564,1.564,0,0,1,337.227,365.972Z" transform="translate(-319.477 -360.212)" fill="#25517e"></path></g><g transform="translate(48.548 10.975)"><path d="M171.727,371.625H156.044a1.561,1.561,0,0,1-1.488-2.2l1.418-2.968a1.642,1.642,0,0,1,1.488-.911H172.93a1.564,1.564,0,0,1,1.524,2.113l-1.2,2.967A1.633,1.633,0,0,1,171.727,371.625Z" transform="translate(-154.408 -365.55)" fill="#25517e"></path></g><g transform="translate(70.855 10.975)"><path d="M189.482,371.625H173.707a1.565,1.565,0,0,1-1.531-2.1l1.167-2.967a1.635,1.635,0,0,1,1.531-1.009h15.561A1.57,1.57,0,0,1,192,367.558l-.952,2.967A1.625,1.625,0,0,1,189.482,371.625Z" transform="translate(-172.071 -365.55)" fill="#25517e"></path></g><g transform="translate(92.861 10.975)"><path d="M206.98,371.625h-15.85a1.571,1.571,0,0,1-1.567-1.994l.922-2.967a1.625,1.625,0,0,1,1.567-1.114h15.634a1.575,1.575,0,0,1,1.594,1.9l-.706,2.967A1.617,1.617,0,0,1,206.98,371.625Z" transform="translate(-189.494 -365.55)" fill="#25517e"></path></g><g transform="translate(115.181 10.975)"><path d="M224.708,371.625H208.8a1.575,1.575,0,0,1-1.6-1.881l.671-2.967a1.617,1.617,0,0,1,1.6-1.228h15.691a1.582,1.582,0,0,1,1.617,1.778l-.456,2.968A1.61,1.61,0,0,1,224.708,371.625Z" transform="translate(-207.167 -365.55)" fill="#25517e"></path></g><g transform="translate(137.427 10.975)"><path d="M242.359,371.625H226.415a1.583,1.583,0,0,1-1.619-1.762l.422-2.968a1.61,1.61,0,0,1,1.62-1.345h15.727a1.589,1.589,0,0,1,1.63,1.657l-.206,2.967A1.6,1.6,0,0,1,242.359,371.625Z" transform="translate(-224.781 -365.55)" fill="#25517e"></path></g><g transform="translate(159.747 10.975)"><path d="M260.047,371.625H244.088a1.59,1.59,0,0,1-1.632-1.639l.172-2.967a1.6,1.6,0,0,1,1.632-1.469H260a1.6,1.6,0,0,1,1.633,1.533l.043,2.967A1.593,1.593,0,0,1,260.047,371.625Z" transform="translate(-242.454 -365.55)" fill="#25517e"></path></g><g transform="translate(182.024 10.975)"><path d="M277.758,371.625H261.8a1.6,1.6,0,0,1-1.633-1.516l-.078-2.967a1.593,1.593,0,0,1,1.634-1.593h15.738a1.6,1.6,0,0,1,1.627,1.408l.293,2.968A1.586,1.586,0,0,1,277.758,371.625Z" transform="translate(-260.093 -365.55)" fill="#25517e"></path></g><g transform="translate(203.833 10.975)"><path d="M295.247,371.625H279.319a1.606,1.606,0,0,1-1.625-1.393l-.325-2.967a1.586,1.586,0,0,1,1.625-1.715h15.713a1.613,1.613,0,0,1,1.61,1.29l.539,2.967A1.579,1.579,0,0,1,295.247,371.625Z" transform="translate(-277.36 -365.55)" fill="#25517e"></path></g><g transform="translate(225.953 10.975)"><path d="M312.966,371.625H297.084a1.615,1.615,0,0,1-1.608-1.272l-.575-2.968a1.579,1.579,0,0,1,1.608-1.835h15.667a1.62,1.62,0,0,1,1.584,1.172l.789,2.968A1.573,1.573,0,0,1,312.966,371.625Z" transform="translate(-294.874 -365.55)" fill="#25517e"></path></g><g transform="translate(248.434 10.975)"><path d="M330.954,371.625H315.138a1.623,1.623,0,0,1-1.579-1.154l-.829-2.968a1.572,1.572,0,0,1,1.579-1.953h15.6a1.63,1.63,0,0,1,1.55,1.061l1.043,2.967A1.568,1.568,0,0,1,330.954,371.625Z" transform="translate(-312.675 -365.55)" fill="#25517e"></path></g><g transform="translate(270.469 10.975)"><path d="M349.622,368.889c.654,1.505-.211,2.736-1.924,2.736H334.582a4.672,4.672,0,0,1-4.126-2.8l-.173-.477a2,2,0,0,1,2.1-2.8h12.676a5.056,5.056,0,0,1,4.3,2.736Z" transform="translate(-330.122 -365.55)" fill="#25517e"></path></g><g transform="translate(292.606 10.975)"><path d="M366.242,371.625H350.612a1.636,1.636,0,0,1-1.5-.945l-1.327-2.968a1.562,1.562,0,0,1,1.5-2.162H364.7a1.646,1.646,0,0,1,1.465.865l1.542,2.967A1.559,1.559,0,0,1,366.242,371.625Z" transform="translate(-347.649 -365.55)" fill="#25517e"></path></g><g transform="translate(50.667 18.18)"><path d="M173.976,377.676H157.72a1.562,1.562,0,0,1-1.5-2.174l1.513-3.312a1.637,1.637,0,0,1,1.5-.936h16.016a1.565,1.565,0,0,1,1.534,2.088l-1.273,3.313A1.632,1.632,0,0,1,173.976,377.676Z" transform="translate(-156.086 -371.255)" fill="#25517e"></path></g><g transform="translate(73.612 18.18)"><path d="M192.233,377.676H175.888a1.567,1.567,0,0,1-1.54-2.074l1.234-3.311a1.63,1.63,0,0,1,1.54-1.036h16.1a1.572,1.572,0,0,1,1.571,1.982l-.994,3.312A1.624,1.624,0,0,1,192.233,377.676Z" transform="translate(-174.253 -371.255)" fill="#25517e"></path></g><g transform="translate(96.248 18.18)"><path d="M210.224,377.676H193.812a1.572,1.572,0,0,1-1.576-1.966l.959-3.313a1.624,1.624,0,0,1,1.575-1.142h16.174a1.577,1.577,0,0,1,1.6,1.869l-.717,3.312A1.619,1.619,0,0,1,210.224,377.676Z" transform="translate(-192.176 -371.255)" fill="#25517e"></path></g><g transform="translate(119.207 18.18)"><path d="M228.453,377.676H211.989a1.579,1.579,0,0,1-1.6-1.853l.679-3.312a1.616,1.616,0,0,1,1.6-1.257h16.224A1.585,1.585,0,0,1,230.515,373l-.44,3.311A1.61,1.61,0,0,1,228.453,377.676Z" transform="translate(-210.355 -371.255)" fill="#25517e"></path></g><g transform="translate(142.089 18.18)"><path d="M246.6,377.676h-16.5a1.585,1.585,0,0,1-1.623-1.733l.4-3.312a1.607,1.607,0,0,1,1.623-1.377h16.256a1.593,1.593,0,0,1,1.633,1.627l-.162,3.311A1.6,1.6,0,0,1,246.6,377.676Z" transform="translate(-228.472 -371.255)" fill="#25517e"></path></g><g transform="translate(165.047 18.18)"><path d="M264.791,377.676H248.284a1.593,1.593,0,0,1-1.633-1.609l.122-3.312a1.6,1.6,0,0,1,1.633-1.5h16.267a1.6,1.6,0,0,1,1.633,1.5l.117,3.313A1.592,1.592,0,0,1,264.791,377.676Z" transform="translate(-246.65 -371.255)" fill="#25517e"></path></g><g transform="translate(187.885 18.18)"><path d="M283.02,377.676h-16.5a1.6,1.6,0,0,1-1.633-1.485l-.157-3.312a1.592,1.592,0,0,1,1.633-1.624h16.256a1.606,1.606,0,0,1,1.623,1.379l.4,3.311A1.586,1.586,0,0,1,283.02,377.676Z" transform="translate(-264.733 -371.255)" fill="#25517e"></path></g><g transform="translate(210.294 18.18)"><path d="M301.009,377.676H284.542a1.609,1.609,0,0,1-1.622-1.363L282.489,373a1.585,1.585,0,0,1,1.622-1.745h16.227a1.616,1.616,0,0,1,1.6,1.26l.672,3.311A1.578,1.578,0,0,1,301.009,377.676Z" transform="translate(-282.476 -371.255)" fill="#25517e"></path></g><g transform="translate(233.024 18.18)"><path d="M319.234,377.676H302.82a1.617,1.617,0,0,1-1.6-1.244l-.711-3.312a1.577,1.577,0,0,1,1.6-1.865h16.175a1.625,1.625,0,0,1,1.576,1.145l.951,3.312A1.572,1.572,0,0,1,319.234,377.676Z" transform="translate(-300.473 -371.255)" fill="#25517e"></path></g><g transform="translate(256.125 18.18)"><path d="M337.737,377.676H321.393a1.627,1.627,0,0,1-1.571-1.128l-.994-3.312a1.571,1.571,0,0,1,1.571-1.982h16.1a1.633,1.633,0,0,1,1.541,1.036l1.234,3.311A1.567,1.567,0,0,1,337.737,377.676Z" transform="translate(-318.764 -371.255)" fill="#25517e"></path></g><g transform="translate(278.563 18.18)"><path d="M355.693,377.676H339.436a1.632,1.632,0,0,1-1.535-1.022l-1.271-3.313a1.566,1.566,0,0,1,1.536-2.086h16.016a1.64,1.64,0,0,1,1.5.936l1.511,3.313A1.563,1.563,0,0,1,355.693,377.676Z" transform="translate(-336.53 -371.255)" fill="#25517e"></path></g><g transform="translate(35.245 25.685)"><path d="M162.287,383.985H145.511a1.56,1.56,0,0,1-1.476-2.22l1.838-3.682a1.642,1.642,0,0,1,1.476-.887h16.508a1.564,1.564,0,0,1,1.514,2.138l-1.57,3.68A1.638,1.638,0,0,1,162.287,383.985Z" transform="translate(-143.875 -377.197)" fill="#25517e"></path></g><g transform="translate(58.851 25.685)"><path d="M181.072,383.985H164.2a1.563,1.563,0,0,1-1.519-2.124l1.526-3.68a1.637,1.637,0,0,1,1.521-.984h16.605a1.568,1.568,0,0,1,1.553,2.035l-1.259,3.68A1.629,1.629,0,0,1,181.072,383.985Z" transform="translate(-162.565 -377.197)" fill="#25517e"></path></g><g transform="translate(82.136 25.685)"><path d="M199.589,383.985H182.637a1.57,1.57,0,0,1-1.558-2.022l1.221-3.68a1.627,1.627,0,0,1,1.559-1.086h16.684a1.573,1.573,0,0,1,1.586,1.925l-.954,3.682A1.621,1.621,0,0,1,199.589,383.985Z" transform="translate(-181.002 -377.197)" fill="#25517e"></path></g><g transform="translate(105.753 25.685)"><path d="M218.35,383.985H201.338a1.575,1.575,0,0,1-1.591-1.91l.911-3.682a1.619,1.619,0,0,1,1.591-1.2h16.744a1.58,1.58,0,0,1,1.613,1.809l-.644,3.68A1.613,1.613,0,0,1,218.35,383.985Z" transform="translate(-199.702 -377.197)" fill="#25517e"></path></g><g transform="translate(129.291 25.685)"><path d="M237.028,383.985H219.974a1.581,1.581,0,0,1-1.615-1.792l.6-3.682a1.61,1.61,0,0,1,1.614-1.315h16.786a1.586,1.586,0,0,1,1.628,1.687l-.333,3.682A1.6,1.6,0,0,1,237.028,383.985Z" transform="translate(-218.339 -377.197)" fill="#25517e"></path></g><g transform="translate(152.908 25.685)"><path d="M255.748,383.985H238.672a1.589,1.589,0,0,1-1.629-1.671l.292-3.68a1.6,1.6,0,0,1,1.629-1.437h16.808a1.594,1.594,0,0,1,1.634,1.564l-.024,3.682A1.6,1.6,0,0,1,255.748,383.985Z" transform="translate(-237.038 -377.197)" fill="#25517e"></path></g><g transform="translate(176.541 25.685)"><path d="M274.48,383.985H257.4a1.6,1.6,0,0,1-1.634-1.547l-.019-3.68a1.6,1.6,0,0,1,1.634-1.561h16.808a1.6,1.6,0,0,1,1.631,1.44l.285,3.68A1.589,1.589,0,0,1,274.48,383.985Z" transform="translate(-255.751 -377.197)" fill="#25517e"></path></g><g transform="translate(199.569 25.685)"><path d="M293,383.985H275.944a1.6,1.6,0,0,1-1.629-1.425l-.325-3.68a1.587,1.587,0,0,1,1.629-1.684h16.787a1.611,1.611,0,0,1,1.615,1.319l.591,3.682A1.581,1.581,0,0,1,293,383.985Z" transform="translate(-273.984 -377.197)" fill="#25517e"></path></g><g transform="translate(222.927 25.685)"><path d="M311.762,383.985H294.749a1.611,1.611,0,0,1-1.613-1.3L292.5,379a1.58,1.58,0,0,1,1.613-1.8H310.86a1.62,1.62,0,0,1,1.591,1.2l.9,3.68A1.575,1.575,0,0,1,311.762,383.985Z" transform="translate(-292.479 -377.197)" fill="#25517e"></path></g><g transform="translate(246.665 25.685)"><path d="M330.811,383.985H313.859a1.621,1.621,0,0,1-1.588-1.183l-.95-3.682a1.574,1.574,0,0,1,1.588-1.923h16.685a1.627,1.627,0,0,1,1.559,1.087l1.216,3.68A1.569,1.569,0,0,1,330.811,383.985Z" transform="translate(-311.274 -377.197)" fill="#25517e"></path></g><g transform="translate(269.723 25.685)"><path d="M349.3,383.985H332.422a1.628,1.628,0,0,1-1.555-1.075l-1.255-3.68a1.569,1.569,0,0,1,1.555-2.033h16.607a1.636,1.636,0,0,1,1.521.985l1.522,3.68A1.565,1.565,0,0,1,349.3,383.985Z" transform="translate(-329.531 -377.197)" fill="#25517e"></path></g><g transform="translate(293.343 25.685)"><path d="M397.736,383.985h-46.3a1.637,1.637,0,0,1-1.514-.97l-1.57-3.682a1.563,1.563,0,0,1,1.514-2.137h45.644a1.648,1.648,0,0,1,1.416.779l2.225,3.682A1.556,1.556,0,0,1,397.736,383.985Z" transform="translate(-348.233 -377.197)" fill="#25517e"></path></g><g transform="translate(301.511 18.18)"><path d="M374.038,377.676H357.888a1.64,1.64,0,0,1-1.492-.922l-1.552-3.312a1.562,1.562,0,0,1,1.493-2.187h15.911a1.647,1.647,0,0,1,1.452.844l1.791,3.312A1.558,1.558,0,0,1,374.038,377.676Z" transform="translate(-354.701 -371.255)" fill="#25517e"></path></g><g transform="translate(278.601 4.233)"><path d="M354.442,365.972H339.269a1.636,1.636,0,0,1-1.526-1l-1.072-2.654a1.564,1.564,0,0,1,1.524-2.112h14.981a1.641,1.641,0,0,1,1.488.912l1.266,2.654A1.561,1.561,0,0,1,354.442,365.972Z" transform="translate(-336.561 -360.212)" fill="#25517e"></path></g><g transform="translate(314.156 11.026)"><path d="M380.927,365.59H366.671c-1.278,0-2.145.338-1.924.754l2.412,4.538c.23.431,1.489.786,2.8.786h2.285a1.647,1.647,0,0,1,1.446.831l3.213,5.812c.253.456,1.56.83,2.9.83h9.189c1.345,0,2.219-.374,1.944-.83l-7.23-11.967C383.456,365.928,382.205,365.59,380.927,365.59Z" transform="translate(-364.713 -365.59)" fill="#25517e"></path></g><g transform="translate(300.461 4.233)"><path d="M382.656,365.972H356.8a1.64,1.64,0,0,1-1.48-.9l-1.3-2.653a1.56,1.56,0,0,1,1.48-2.21h25.549a1.651,1.651,0,0,1,1.417.779l1.6,2.653A1.555,1.555,0,0,1,382.656,365.972Z" transform="translate(-353.869 -360.212)" fill="#25517e"></path></g><g transform="translate(45.182)"><path d="M168.581,360.077h-15.2a1.558,1.558,0,0,1-1.465-2.241l.056-.109a1.646,1.646,0,0,1,1.466-.868h15.194a1.563,1.563,0,0,1,1.505,2.157l-.048.109A1.638,1.638,0,0,1,168.581,360.077Z" transform="translate(-151.743 -356.86)" fill="#25517e"></path></g><g transform="translate(67.19)"><path d="M186.111,360.077H170.8a1.564,1.564,0,0,1-1.513-2.142l.047-.109a1.638,1.638,0,0,1,1.513-.966h15.3a1.568,1.568,0,0,1,1.548,2.052l-.038.107A1.631,1.631,0,0,1,186.111,360.077Z" transform="translate(-169.169 -356.86)" fill="#25517e"></path></g><g transform="translate(88.882)"><path d="M203.369,360.077H187.978a1.567,1.567,0,0,1-1.552-2.036l.037-.109a1.63,1.63,0,0,1,1.553-1.072H203.4a1.574,1.574,0,0,1,1.584,1.94l-.029.107A1.622,1.622,0,0,1,203.369,360.077Z" transform="translate(-186.344 -356.86)" fill="#25517e"></path></g><g transform="translate(110.909)"><path d="M220.876,360.077H205.419a1.574,1.574,0,0,1-1.588-1.921l.027-.109a1.622,1.622,0,0,1,1.589-1.187h15.447a1.58,1.58,0,0,1,1.61,1.817l-.019.109A1.612,1.612,0,0,1,220.876,360.077Z" transform="translate(-203.785 -356.86)" fill="#25517e"></path></g><g transform="translate(132.657)"><path d="M238.139,360.077h-15.5a1.581,1.581,0,0,1-1.613-1.8l.018-.107a1.613,1.613,0,0,1,1.614-1.308h15.492a1.588,1.588,0,0,1,1.628,1.694l-.01.107A1.6,1.6,0,0,1,238.139,360.077Z" transform="translate(-221.004 -356.86)" fill="#25517e"></path></g><g transform="translate(154.704)"><path d="M255.618,360.077H240.1a1.588,1.588,0,0,1-1.629-1.673l.009-.109a1.605,1.605,0,0,1,1.629-1.435H255.62a1.6,1.6,0,0,1,1.634,1.565v.107A1.6,1.6,0,0,1,255.618,360.077Z" transform="translate(-238.461 -356.86)" fill="#25517e"></path></g><g transform="translate(176.436)"><path d="M272.827,360.077H257.3a1.6,1.6,0,0,1-1.634-1.546v-.109a1.6,1.6,0,0,1,1.634-1.562h15.516a1.6,1.6,0,0,1,1.629,1.437l.009.107A1.588,1.588,0,0,1,272.827,360.077Z" transform="translate(-255.668 -356.86)" fill="#25517e"></path></g><g transform="translate(198.525)"><path d="M290.3,360.077H274.8a1.6,1.6,0,0,1-1.628-1.417l-.01-.109a1.588,1.588,0,0,1,1.628-1.691h15.493a1.612,1.612,0,0,1,1.613,1.31l.019.109A1.581,1.581,0,0,1,290.3,360.077Z" transform="translate(-273.158 -356.86)" fill="#25517e"></path></g><g transform="translate(220.307)"><path d="M307.516,360.077H292.058a1.612,1.612,0,0,1-1.61-1.292l-.02-.109a1.581,1.581,0,0,1,1.612-1.816h15.449a1.622,1.622,0,0,1,1.589,1.188l.027.109A1.574,1.574,0,0,1,307.516,360.077Z" transform="translate(-290.404 -356.86)" fill="#25517e"></path></g><g transform="translate(242.39)"><path d="M324.944,360.077H309.552a1.62,1.62,0,0,1-1.582-1.171l-.029-.109a1.574,1.574,0,0,1,1.584-1.937h15.383a1.628,1.628,0,0,1,1.553,1.074l.038.109A1.569,1.569,0,0,1,324.944,360.077Z" transform="translate(-307.889 -356.86)" fill="#25517e"></path></g><g transform="translate(264.155)"><path d="M342.1,360.077H326.8a1.628,1.628,0,0,1-1.548-1.058l-.039-.109a1.568,1.568,0,0,1,1.548-2.05h15.3a1.636,1.636,0,0,1,1.513.967l.047.109A1.563,1.563,0,0,1,342.1,360.077Z" transform="translate(-325.123 -356.86)" fill="#25517e"></path></g><g transform="translate(286.23)"><path d="M359.487,360.077h-15.2a1.636,1.636,0,0,1-1.507-.952l-.048-.109a1.563,1.563,0,0,1,1.507-2.156h15.195a1.642,1.642,0,0,1,1.466.87l.057.107A1.56,1.56,0,0,1,359.487,360.077Z" transform="translate(-342.601 -356.86)" fill="#25517e"></path></g><g transform="translate(308.013)"><path d="M376.625,360.077H361.541a1.645,1.645,0,0,1-1.46-.856l-.057-.109a1.559,1.559,0,0,1,1.46-2.252h15.076a1.649,1.649,0,0,1,1.417.782l.066.109A1.556,1.556,0,0,1,376.625,360.077Z" transform="translate(-359.849 -356.86)" fill="#25517e"></path></g></g></g></g><g transform="translate(61.565)"><path d="M135.309,392.806a8.272,8.272,0,0,1-8.262-8.262v-183.3a17.354,17.354,0,0,1,17.434-17.232H431.417a17.354,17.354,0,0,1,17.434,17.232v183.3a8.272,8.272,0,0,1-8.262,8.262Z" transform="translate(-127.047 -184.016)" fill="#f1f2f2"></path><path d="M431.19,184.88H144.254a16.242,16.242,0,0,0-16.342,16.141v183.3a7.17,7.17,0,0,0,7.17,7.17h305.28a7.17,7.17,0,0,0,7.17-7.17v-183.3A16.242,16.242,0,0,0,431.19,184.88Z" transform="translate(-126.82 -183.789)" fill="#d1d3d4"></path><path d="M254.242,189.187a2.39,2.39,0,1,0,2.391,2.39A2.389,2.389,0,0,0,254.242,189.187Z" transform="translate(-94.227 -182.656)" fill="#231f20" opacity="0.6"></path><rect width="293.564" height="187.242" transform="translate(14.12 16.62)" fill="#939598"></rect><rect width="292.471" height="186.15" transform="translate(14.666 17.166)" fill="#d4edfc"></rect></g></g><path d="M140.175,197.608v186.15h.7l276.584-186.15Z" transform="translate(-62.03 -180.442)" fill="#fff" opacity="0.15"></path></g><path d="M206.864,380.111H362.678a7.119,7.119,0,0,0,7.118-7.119V184.016H199.745V372.991A7.12,7.12,0,0,0,206.864,380.111Z" transform="translate(43.967 22.481)" fill="#06386b" opacity="0.2" style="mix-blend-mode:multiply;isolation:isolate"></path><path d="M364.143,384.976H208.331a7.118,7.118,0,0,1-7.119-7.119V176.737c0-29.151-27.009-32.854-27.009-32.854H343.189a28.074,28.074,0,0,1,28.073,28.073v205.9A7.119,7.119,0,0,1,364.143,384.976Z" transform="translate(37.251 11.927)" fill="url(#v)"></path><g transform="translate(337.771 315.631)"><path d="M283.049,331.243l14.577-6.492,14.461,6.492v-37.37H283.049Z" transform="translate(-274.657 -264.372)" fill="#47b8b1"></path><path d="M283.957,325.272,294.921,320l10.876,5.277V294.9h-21.84Z" transform="translate(-271.966 -264.065)" fill="none" stroke="#fff" stroke-miterlimit="10" stroke-width="0.533"></path><path d="M283.049,293.873V304a23.115,23.115,0,0,0,29.037,0V293.873Z" transform="translate(-274.656 -263.055)" fill="#00a1a3" opacity="0.5" style="mix-blend-mode:multiply;isolation:isolate"></path><g transform="translate(-4.579 -4.579)"><circle cx="19.558" cy="19.558" r="19.558" transform="matrix(0.781, -0.625, 0.625, 0.781, 0, 24.439)" fill="#fdc700"></circle><circle cx="14.277" cy="14.277" r="14.277" transform="translate(7.299 27.49) rotate(-45)" fill="#f39700"></circle><circle cx="12.569" cy="12.569" r="12.569" transform="matrix(0.78, -0.625, 0.625, 0.78, 9.822, 25.539)" fill="#f8b000"></circle><path d="M307.742,277.733l-26.452,26.45a19.643,19.643,0,0,0,4.832,5.911l27.529-27.529A19.637,19.637,0,0,0,307.742,277.733Z" transform="translate(-271.061 -267.503)" fill="#fff073" opacity="0.37" style="mix-blend-mode:screen;isolation:isolate"></path><path d="M302.535,276.448l-22.529,22.53a19.306,19.306,0,0,0,.968,3.6l25.159-25.161A19.522,19.522,0,0,0,302.535,276.448Z" transform="translate(-271.779 -268.222)" fill="#fff073" opacity="0.37" style="mix-blend-mode:screen;isolation:isolate"></path><path d="M312.616,282.088l-26.97,26.971a19.477,19.477,0,0,0,3,1.57l25.546-25.544A19.488,19.488,0,0,0,312.616,282.088Z" transform="translate(-268.625 -265.068)" fill="#fff073" opacity="0.37" style="mix-blend-mode:screen;isolation:isolate"></path></g></g><g transform="translate(281.076 179.108)"><path d="M8.616.24a7.956,7.956,0,0,1-5.4-1.692A6.384,6.384,0,0,1,1.152-6.264q-.024-.7-.024-2.208t.024-2.208a6.126,6.126,0,0,1,2.1-4.7A8.1,8.1,0,0,1,8.616-17.04a9.8,9.8,0,0,1,3.972.744,6.546,6.546,0,0,1,2.592,1.9,4.093,4.093,0,0,1,.948,2.376.47.47,0,0,1-.156.36.53.53,0,0,1-.372.144H12.1a.865.865,0,0,1-.384-.072.559.559,0,0,1-.24-.264,3.148,3.148,0,0,0-.984-1.212,3.01,3.01,0,0,0-1.872-.516q-2.856,0-3,3.024-.024.672-.024,2.088,0,1.392.024,2.088Q5.76-3.216,8.688-3.216a3.36,3.36,0,0,0,2.268-.732,2.8,2.8,0,0,0,.852-2.244v-.456H9.552a.564.564,0,0,1-.432-.18.626.626,0,0,1-.168-.444V-9.048a.626.626,0,0,1,.168-.444.564.564,0,0,1,.432-.18H15.6a.564.564,0,0,1,.432.18.626.626,0,0,1,.168.444v2.736A6.427,6.427,0,0,1,15.264-2.8,5.98,5.98,0,0,1,12.612-.54,9.574,9.574,0,0,1,8.616.24Zm15.84,0A6.349,6.349,0,0,1,19.92-1.32a6.152,6.152,0,0,1-1.728-4.536V-6.7a6.144,6.144,0,0,1,1.764-4.428,6.2,6.2,0,0,1,4.476-1.6,6.674,6.674,0,0,1,3.444.828,5.3,5.3,0,0,1,2.112,2.268A7.414,7.414,0,0,1,30.7-6.312v.576a.6.6,0,0,1-.168.42.564.564,0,0,1-.432.18h-7.68v.168a3.287,3.287,0,0,0,.552,1.824,1.7,1.7,0,0,0,1.464.7,1.761,1.761,0,0,0,.984-.252,3.354,3.354,0,0,0,.7-.612,1.186,1.186,0,0,1,.348-.324,1.083,1.083,0,0,1,.42-.06h2.976a.557.557,0,0,1,.372.132.434.434,0,0,1,.156.348,2.357,2.357,0,0,1-.708,1.44A5.8,5.8,0,0,1,27.624-.36,7.719,7.719,0,0,1,24.456.24Zm2.016-7.752V-7.56a2.924,2.924,0,0,0-.54-1.86,1.8,1.8,0,0,0-1.5-.684,1.779,1.779,0,0,0-1.476.684,2.924,2.924,0,0,0-.54,1.86v.048ZM33.552,0a.585.585,0,0,1-.432-.168A.585.585,0,0,1,32.952-.6V-11.88a.585.585,0,0,1,.168-.432.585.585,0,0,1,.432-.168h2.76a.626.626,0,0,1,.444.168.564.564,0,0,1,.18.432v.912A4.7,4.7,0,0,1,38.6-12.24a5.376,5.376,0,0,1,2.316-.48,4.458,4.458,0,0,1,3.432,1.428,5.666,5.666,0,0,1,1.32,4V-.6a.6.6,0,0,1-.168.42.564.564,0,0,1-.432.18H42.048a.576.576,0,0,1-.42-.18.576.576,0,0,1-.18-.42V-7.152a2.51,2.51,0,0,0-.552-1.74A2.023,2.023,0,0,0,39.312-9.5a2.07,2.07,0,0,0-1.584.612,2.442,2.442,0,0,0-.576,1.74V-.6a.6.6,0,0,1-.168.42.564.564,0,0,1-.432.18ZM52.968.24A4.383,4.383,0,0,1,49.56-1.188a5.733,5.733,0,0,1-1.3-4v-6.7a.585.585,0,0,1,.168-.432.585.585,0,0,1,.432-.168h3a.626.626,0,0,1,.444.168.564.564,0,0,1,.18.432v6.552q0,2.352,2.088,2.352A2.049,2.049,0,0,0,56.16-3.6a2.451,2.451,0,0,0,.576-1.728V-11.88a.564.564,0,0,1,.18-.432.6.6,0,0,1,.42-.168h3a.585.585,0,0,1,.432.168.585.585,0,0,1,.168.432V-.6a.6.6,0,0,1-.168.42.564.564,0,0,1-.432.18H57.552a.576.576,0,0,1-.42-.18.576.576,0,0,1-.18-.42v-.912A4.553,4.553,0,0,1,52.968.24ZM64.344-14.28a.585.585,0,0,1-.432-.168.585.585,0,0,1-.168-.432v-2.16a.585.585,0,0,1,.168-.432.585.585,0,0,1,.432-.168h2.88a.585.585,0,0,1,.432.168.585.585,0,0,1,.168.432v2.16a.585.585,0,0,1-.168.432.585.585,0,0,1-.432.168ZM64.368,0a.585.585,0,0,1-.432-.168A.585.585,0,0,1,63.768-.6V-11.88a.585.585,0,0,1,.168-.432.585.585,0,0,1,.432-.168H67.2a.585.585,0,0,1,.432.168.585.585,0,0,1,.168.432V-.6a.6.6,0,0,1-.168.42A.564.564,0,0,1,67.2,0Zm6.864,0A.585.585,0,0,1,70.8-.168.585.585,0,0,1,70.632-.6V-11.88a.585.585,0,0,1,.168-.432.585.585,0,0,1,.432-.168h2.76a.626.626,0,0,1,.444.168.564.564,0,0,1,.18.432v.912a4.7,4.7,0,0,1,1.668-1.272,5.376,5.376,0,0,1,2.316-.48,4.458,4.458,0,0,1,3.432,1.428,5.666,5.666,0,0,1,1.32,4V-.6a.6.6,0,0,1-.168.42.564.564,0,0,1-.432.18H79.728a.576.576,0,0,1-.42-.18.576.576,0,0,1-.18-.42V-7.152a2.51,2.51,0,0,0-.552-1.74A2.023,2.023,0,0,0,76.992-9.5a2.07,2.07,0,0,0-1.584.612,2.442,2.442,0,0,0-.576,1.74V-.6a.6.6,0,0,1-.168.42.564.564,0,0,1-.432.18ZM91.824.24a6.349,6.349,0,0,1-4.536-1.56A6.152,6.152,0,0,1,85.56-5.856V-6.7a6.144,6.144,0,0,1,1.764-4.428,6.2,6.2,0,0,1,4.476-1.6,6.674,6.674,0,0,1,3.444.828,5.3,5.3,0,0,1,2.112,2.268,7.414,7.414,0,0,1,.708,3.312v.576a.6.6,0,0,1-.168.42.564.564,0,0,1-.432.18h-7.68v.168a3.287,3.287,0,0,0,.552,1.824,1.7,1.7,0,0,0,1.464.7,1.761,1.761,0,0,0,.984-.252,3.354,3.354,0,0,0,.7-.612,1.186,1.186,0,0,1,.348-.324,1.083,1.083,0,0,1,.42-.06h2.976a.557.557,0,0,1,.372.132.434.434,0,0,1,.156.348,2.357,2.357,0,0,1-.708,1.44A5.8,5.8,0,0,1,94.992-.36,7.719,7.719,0,0,1,91.824.24ZM93.84-7.512V-7.56a2.924,2.924,0,0,0-.54-1.86,1.8,1.8,0,0,0-1.5-.684,1.779,1.779,0,0,0-1.476.684,2.924,2.924,0,0,0-.54,1.86v.048Z" transform="translate(0 25)" fill="#444"></path><path d="M1.71,0a.432.432,0,0,1-.315-.135A.432.432,0,0,1,1.26-.45v-11.7a.423.423,0,0,1,.135-.324A.447.447,0,0,1,1.71-12.6H4.086a.439.439,0,0,1,.324.126.439.439,0,0,1,.126.324v9.432H9.99a.423.423,0,0,1,.324.135.47.47,0,0,1,.126.333v1.8a.447.447,0,0,1-.126.315A.423.423,0,0,1,9.99,0ZM15.948,0a.432.432,0,0,1-.315-.135A.432.432,0,0,1,15.5-.45v-11.7a.423.423,0,0,1,.135-.324.447.447,0,0,1,.315-.126H18.36a.47.47,0,0,1,.333.126.423.423,0,0,1,.135.324V-.45a.423.423,0,0,1-.135.324A.47.47,0,0,1,18.36,0Zm14.04.18a5.959,5.959,0,0,1-4.023-1.251A4.786,4.786,0,0,1,24.426-4.7q-.018-.486-.018-1.584,0-1.116.018-1.62a4.758,4.758,0,0,1,1.566-3.609,5.924,5.924,0,0,1,4-1.269,7.26,7.26,0,0,1,2.844.531,4.674,4.674,0,0,1,1.989,1.512,3.834,3.834,0,0,1,.747,2.3v.036a.307.307,0,0,1-.117.243.394.394,0,0,1-.261.1H32.76a.571.571,0,0,1-.36-.1.776.776,0,0,1-.216-.369,2.187,2.187,0,0,0-.792-1.287,2.476,2.476,0,0,0-1.422-.369q-2.124,0-2.2,2.376-.018.486-.018,1.494t.018,1.53q.072,2.376,2.2,2.376A2.474,2.474,0,0,0,31.41-2.8a2.066,2.066,0,0,0,.774-1.269.684.684,0,0,1,.2-.369.605.605,0,0,1,.378-.1h2.43a.4.4,0,0,1,.279.108.3.3,0,0,1,.1.27,3.834,3.834,0,0,1-.747,2.295A4.674,4.674,0,0,1,32.832-.351,7.26,7.26,0,0,1,29.988.18ZM41.4,0a.432.432,0,0,1-.315-.135A.432.432,0,0,1,40.95-.45v-11.7a.423.423,0,0,1,.135-.324A.447.447,0,0,1,41.4-12.6h8.406a.439.439,0,0,1,.324.126.439.439,0,0,1,.126.324v1.692a.447.447,0,0,1-.126.315.423.423,0,0,1-.324.135H44.064v2.43H49.41a.423.423,0,0,1,.324.135.47.47,0,0,1,.126.333v1.566a.447.447,0,0,1-.126.315.423.423,0,0,1-.324.135H44.064v2.5H49.95a.439.439,0,0,1,.324.126.439.439,0,0,1,.126.324V-.45a.447.447,0,0,1-.126.315A.423.423,0,0,1,49.95,0ZM56.394,0a.432.432,0,0,1-.315-.135.432.432,0,0,1-.135-.315v-11.7a.423.423,0,0,1,.135-.324.447.447,0,0,1,.315-.126H58.3a.613.613,0,0,1,.612.342l4.392,6.912v-6.8a.423.423,0,0,1,.135-.324.447.447,0,0,1,.315-.126h2.16a.439.439,0,0,1,.324.126.439.439,0,0,1,.126.324V-.468a.47.47,0,0,1-.126.333A.423.423,0,0,1,65.916,0H63.99A.644.644,0,0,1,63.4-.342L59-7V-.45a.447.447,0,0,1-.126.315A.423.423,0,0,1,58.554,0ZM77.076.18a7.693,7.693,0,0,1-2.934-.5A4.3,4.3,0,0,1,72.3-1.647a3.1,3.1,0,0,1-.657-1.791.361.361,0,0,1,.117-.261.381.381,0,0,1,.279-.117H74.3a.676.676,0,0,1,.351.081,1.24,1.24,0,0,1,.279.243,1.871,1.871,0,0,0,.756.774,2.727,2.727,0,0,0,1.386.306,3.079,3.079,0,0,0,1.566-.324.989.989,0,0,0,.54-.882.834.834,0,0,0-.279-.648,2.49,2.49,0,0,0-.873-.45,17.96,17.96,0,0,0-1.764-.45,7.571,7.571,0,0,1-3.231-1.323,3.032,3.032,0,0,1-1.071-2.493,3.311,3.311,0,0,1,.612-1.962,4.01,4.01,0,0,1,1.746-1.35,6.674,6.674,0,0,1,2.646-.486,6.349,6.349,0,0,1,2.718.54,4.479,4.479,0,0,1,1.755,1.359A2.956,2.956,0,0,1,82.08-9.27a.366.366,0,0,1-.108.27.366.366,0,0,1-.27.108H79.326a.744.744,0,0,1-.351-.072.689.689,0,0,1-.243-.234,1.186,1.186,0,0,0-.585-.7,2.244,2.244,0,0,0-1.179-.288,2.237,2.237,0,0,0-1.242.288.952.952,0,0,0-.432.846.872.872,0,0,0,.243.63,2.165,2.165,0,0,0,.792.459,11.342,11.342,0,0,0,1.575.423,11.518,11.518,0,0,1,2.673.765,3.33,3.33,0,0,1,1.467,1.188,3.319,3.319,0,0,1,.468,1.827,3.316,3.316,0,0,1-.693,2.1A4.365,4.365,0,0,1,79.893-.3,7.767,7.767,0,0,1,77.076.18ZM88.254,0a.432.432,0,0,1-.315-.135A.432.432,0,0,1,87.8-.45v-11.7a.423.423,0,0,1,.135-.324.447.447,0,0,1,.315-.126H96.66a.439.439,0,0,1,.324.126.439.439,0,0,1,.126.324v1.692a.447.447,0,0,1-.126.315.423.423,0,0,1-.324.135H90.918v2.43h5.346a.423.423,0,0,1,.324.135.47.47,0,0,1,.126.333v1.566a.447.447,0,0,1-.126.315.423.423,0,0,1-.324.135H90.918v2.5H96.8a.439.439,0,0,1,.324.126.439.439,0,0,1,.126.324V-.45a.447.447,0,0,1-.126.315A.423.423,0,0,1,96.8,0Z" transform="translate(1.002 42.266)" fill="#444"></path></g><rect width="125.631" height="5.246" transform="translate(262.199 231.509)" fill="#d4edfc"></rect><rect width="125.631" height="5.246" transform="translate(262.199 250.885)" fill="#d4edfc"></rect><rect width="125.631" height="5.246" transform="translate(262.199 270.26)" fill="#d4edfc"></rect><rect width="125.631" height="5.246" transform="translate(262.199 289.635)" fill="#d4edfc"></rect><rect width="125.631" height="5.246" transform="translate(262.199 309.011)" fill="#d4edfc"></rect><rect width="67.041" height="5.246" transform="translate(262.199 328.801)" fill="#d4edfc"></rect><rect width="67.041" height="5.246" transform="translate(262.199 348.592)" fill="#d4edfc"></rect><rect width="67.041" height="5.246" transform="translate(262.199 368.382)" fill="#d4edfc"></rect><g transform="translate(53.755 177.741)"><circle cx="4.692" cy="4.692" r="4.692" transform="translate(488.22 210.577)" fill="none" stroke="#005579" stroke-miterlimit="10" stroke-width="0.5"></circle><circle cx="9.522" cy="9.522" r="9.522" transform="translate(507.263 165.592)" fill="none" stroke="#005579" stroke-miterlimit="10" stroke-width="0.5"></circle><circle cx="2.07" cy="2.07" r="2.07" transform="translate(489.876 163.108)" fill="none" stroke="#005579" stroke-miterlimit="10" stroke-width="0.5"></circle><path d="M456.295,234.7a3.311,3.311,0,1,1-3.311-3.313A3.312,3.312,0,0,1,456.295,234.7Z" transform="translate(55.935 -142.801)" fill="none" stroke="#005579" stroke-miterlimit="10" stroke-width="0.5"></path><path d="M397.317,211.553a4.415,4.415,0,1,1-4.415-4.417A4.415,4.415,0,0,1,397.317,211.553Z" transform="translate(39.845 -149.18)" fill="none" stroke="#005579" stroke-miterlimit="10" stroke-width="0.5"></path><path d="M411.418,208.551a2.07,2.07,0,1,1-2.07-2.07A2.07,2.07,0,0,1,411.418,208.551Z" transform="translate(44.787 -149.352)" fill="none" stroke="#005579" stroke-miterlimit="10" stroke-width="0.5"></path><path d="M353,167.87a6.624,6.624,0,1,1-6.623-6.623A6.624,6.624,0,0,1,353,167.87Z" transform="translate(27.031 -161.247)" fill="none" stroke="#005579" stroke-miterlimit="10" stroke-width="0.5"></path><circle cx="2.484" cy="2.484" r="2.484" transform="translate(112.326 13.799)" fill="none" stroke="#005579" stroke-miterlimit="10" stroke-width="0.5"></circle><path d="M112.2,189.183a1.932,1.932,0,1,1-1.932-1.932A1.932,1.932,0,0,1,112.2,189.183Z" transform="translate(-33.824 -154.409)" fill="none" stroke="#005579" stroke-miterlimit="10" stroke-width="0.5"></path><path d="M65.324,204.2a6.9,6.9,0,1,1-6.9-6.9A6.9,6.9,0,0,1,65.324,204.2Z" transform="translate(-48.765 -151.765)" fill="none" stroke="#005579" stroke-miterlimit="10" stroke-width="0.5"></path><path d="M73.33,238.362a3.036,3.036,0,1,1-3.036-3.036A3.035,3.035,0,0,1,73.33,238.362Z" transform="translate(-44.628 -141.767)" fill="none" stroke="#005579" stroke-miterlimit="10" stroke-width="0.5"></path><path d="M88.787,264.664a5.52,5.52,0,1,1-5.519-5.519A5.519,5.519,0,0,1,88.787,264.664Z" transform="translate(-41.869 -135.503)" fill="none" stroke="#005579" stroke-miterlimit="10" stroke-width="0.5"></path><circle cx="2.484" cy="2.484" r="2.484" transform="translate(0 205.334)" fill="none" stroke="#005579" stroke-miterlimit="10" stroke-width="0.5"></circle><path d="M77.782,324.828a1.656,1.656,0,1,1-1.656-1.656A1.656,1.656,0,0,1,77.782,324.828Z" transform="translate(-42.731 -118.666)" fill="none" stroke="#005579" stroke-miterlimit="10" stroke-width="0.5"></path><path d="M65.187,365.4a5.52,5.52,0,1,1-5.52-5.52A5.52,5.52,0,0,1,65.187,365.4Z" transform="translate(-48.075 -109.012)" fill="none" stroke="#005579" stroke-miterlimit="10" stroke-width="0.5"></path><circle cx="3.375" cy="3.375" r="3.375" transform="translate(54.617 254.002)" fill="none" stroke="#005579" stroke-miterlimit="10" stroke-width="0.5"></circle></g><g transform="translate(551.638 415.174)"><path d="M459.853,362.526a8.772,8.772,0,1,1-3.015-12.034A8.771,8.771,0,0,1,459.853,362.526Z" transform="translate(-443.556 -349.243)" fill="url(#g)"></path><g transform="translate(2.803 2.785)"><path d="M449.565,356.1a3.076,3.076,0,0,1,1.534-1.6,3.639,3.639,0,0,0,1.46-1.556c.158-.52.148-1.322.826-1.475s1.589.586,1.292,1.843-.6,1.647-.878,1.859-.082.269.13.333l2.158.653a.99.99,0,0,1,.683,1.218,1.208,1.208,0,0,1-.491.65,1.13,1.13,0,0,1,.1,1.041.82.82,0,0,1-.784.647,1.15,1.15,0,0,1-.947,1.185,1.08,1.08,0,0,1-1.343.961l-3.411-1.033c-.983-.3-1.521-.88-1.358-1.42S449.42,356.578,449.565,356.1Z" transform="translate(-445.055 -351.448)" fill="#fff"></path><path d="M446.375,359.433h0a.843.843,0,0,1-.563-1.051l1.214-4.012a.843.843,0,0,1,1.052-.562h0a1.832,1.832,0,0,1,1.224,2.286l-.64,2.115A1.832,1.832,0,0,1,446.375,359.433Z" transform="translate(-445.775 -350.837)" fill="#fff"></path></g></g><g transform="translate(33.512 275.263)"><path d="M53.373,254.814A10.8,10.8,0,1,1,49.663,240,10.8,10.8,0,0,1,53.373,254.814Z" transform="translate(-33.311 -238.464)" fill="url(#g)"></path><path d="M268.232,369.728a1.449,1.449,0,0,1-1.035-.431l-3.979-4.008a1.481,1.481,0,0,1,.032-2.084,1.455,1.455,0,0,1,2.034,0l2.947,2.968,6.677-6.725a1.455,1.455,0,0,1,2.069,0,1.481,1.481,0,0,1,0,2.084l-7.711,7.767A1.447,1.447,0,0,1,268.232,369.728Z" transform="translate(-259.732 -353.217)" fill="#fff"></path></g><path d="M400.291,159.785a4.719,4.719,0,0,0-4.569.889,4.724,4.724,0,0,0-9.093-.49c-2.075,6.178,5.144,12.25,5.144,12.25s9.2.184,11.5-6.662A4.727,4.727,0,0,0,400.291,159.785Z" transform="translate(93.013 15.366)" fill="#fff"></path><path d="M269.889,373a1.891,1.891,0,0,1-1.351-.563l-5.194-5.232a1.933,1.933,0,0,1,.042-2.72,1.9,1.9,0,0,1,2.655,0l3.847,3.875,8.716-8.779a1.9,1.9,0,0,1,2.7,0,1.933,1.933,0,0,1,0,2.72l-10.066,10.139A1.888,1.888,0,0,1,269.889,373Z" transform="translate(88.55 -27.59)" fill="#fff"></path></g></svg> 