<?xml version="1.0" encoding="UTF-8"?> <svg xmlns="http://www.w3.org/2000/svg" xmlns:xlink="http://www.w3.org/1999/xlink" width="1680" height="435" viewBox="0 0 1680 435"><defs><clipPath id="a"><path d="M0,0H1680V435H0Z" transform="translate(0 254)" fill="#fff"></path></clipPath><filter id="b" x="1553.025" y="135.489" width="84.386" height="81.368"><feOffset dy="3"></feOffset><feGaussianBlur stdDeviation="3" result="c"></feGaussianBlur><feFlood flood-opacity="0.161"></feFlood><feComposite operator="in" in2="c"></feComposite><feComposite in="SourceGraphic"></feComposite></filter><filter id="d" x="1553.025" y="63.165" width="84.386" height="82.147"><feOffset dy="3"></feOffset><feGaussianBlur stdDeviation="3" result="e"></feGaussianBlur><feFlood flood-opacity="0.161"></feFlood><feComposite operator="in" in2="e"></feComposite><feComposite in="SourceGraphic"></feComposite></filter><filter id="f" x="1626.712" y="135.488" width="106.287" height="94.51"><feOffset dy="3"></feOffset><feGaussianBlur stdDeviation="3" result="g"></feGaussianBlur><feFlood flood-opacity="0.161"></feFlood><feComposite operator="in" in2="g"></feComposite><feComposite in="SourceGraphic"></feComposite></filter><filter id="h" x="1626.714" y="50.024" width="106.286" height="95.288"><feOffset dy="3"></feOffset><feGaussianBlur stdDeviation="3" result="i"></feGaussianBlur><feFlood flood-opacity="0.161"></feFlood><feComposite operator="in" in2="i"></feComposite><feComposite in="SourceGraphic"></feComposite></filter><filter id="j" x="-19.975" y="417.789" width="92.387" height="89.005"><feOffset dy="3"></feOffset><feGaussianBlur stdDeviation="3" result="k"></feGaussianBlur><feFlood flood-opacity="0.161"></feFlood><feComposite operator="in" in2="k"></feComposite><feComposite in="SourceGraphic"></feComposite></filter><filter id="l" x="-19.975" y="336.748" width="92.387" height="89.877"><feOffset dy="3"></feOffset><feGaussianBlur stdDeviation="3" result="m"></feGaussianBlur><feFlood flood-opacity="0.161"></feFlood><feComposite operator="in" in2="m"></feComposite><feComposite in="SourceGraphic"></feComposite></filter><filter id="n" x="62.592" y="417.788" width="116.927" height="103.73"><feOffset dy="3"></feOffset><feGaussianBlur stdDeviation="3" result="o"></feGaussianBlur><feFlood flood-opacity="0.161"></feFlood><feComposite operator="in" in2="o"></feComposite><feComposite in="SourceGraphic"></feComposite></filter><filter id="p" x="62.593" y="322.024" width="116.926" height="104.602"><feOffset dy="3"></feOffset><feGaussianBlur stdDeviation="3" result="q"></feGaussianBlur><feFlood flood-opacity="0.161"></feFlood><feComposite operator="in" in2="q"></feComposite><feComposite in="SourceGraphic"></feComposite></filter><filter id="r" x="707.025" y="189.489" width="84.386" height="81.368"><feOffset dy="3"></feOffset><feGaussianBlur stdDeviation="3" result="s"></feGaussianBlur><feFlood flood-opacity="0.161"></feFlood><feComposite operator="in" in2="s"></feComposite><feComposite in="SourceGraphic"></feComposite></filter><filter id="t" x="707.025" y="117.165" width="84.386" height="82.147"><feOffset dy="3"></feOffset><feGaussianBlur stdDeviation="3" result="u"></feGaussianBlur><feFlood flood-opacity="0.161"></feFlood><feComposite operator="in" in2="u"></feComposite><feComposite in="SourceGraphic"></feComposite></filter><filter id="v" x="780.712" y="189.488" width="106.287" height="94.51"><feOffset dy="3"></feOffset><feGaussianBlur stdDeviation="3" result="w"></feGaussianBlur><feFlood flood-opacity="0.161"></feFlood><feComposite operator="in" in2="w"></feComposite><feComposite in="SourceGraphic"></feComposite></filter><filter id="x" x="780.713" y="104.024" width="106.286" height="95.288"><feOffset dy="3"></feOffset><feGaussianBlur stdDeviation="3" result="y"></feGaussianBlur><feFlood flood-opacity="0.161"></feFlood><feComposite operator="in" in2="y"></feComposite><feComposite in="SourceGraphic"></feComposite></filter><linearGradient id="z" x1="0.5" x2="0.5" y2="1" gradientUnits="objectBoundingBox"><stop offset="0" stop-color="#ff8476"></stop><stop offset="1" stop-color="#ff9b43"></stop></linearGradient></defs><g transform="translate(0 -254)" clip-path="url(#a)"><g transform="translate(1562.025 310.024)" opacity="0.05"><g transform="matrix(1, 0, 0, 1, -1562.03, -56.02)" filter="url(#b)"><path d="M0,304.9l66.386,9.149V250.677H0Z" transform="translate(1562.03 -109.19)" fill="#0e539e"></path></g><g transform="matrix(1, 0, 0, 1, -1562.03, -56.02)" filter="url(#d)"><path d="M0,102.691H66.386V38.544L0,47.693Z" transform="translate(1562.03 30.62)" fill="#0e539e"></path></g><g transform="matrix(1, 0, 0, 1, -1562.03, -56.02)" filter="url(#f)"><path d="M216.129,315.018l88.287,12.166V250.675H216.129Z" transform="translate(1419.58 -109.19)" fill="#0e539e"></path></g><g transform="matrix(1, 0, 0, 1, -1562.03, -56.02)" filter="url(#h)"><path d="M216.132,12.167V77.288h88.286V0Z" transform="translate(1419.58 56.02)" fill="#0e539e"></path></g></g><g transform="translate(-10.975 582.024)" opacity="0.08"><g transform="matrix(1, 0, 0, 1, 10.97, -328.02)" filter="url(#j)"><path d="M0,311.43l74.387,10.252v-71H0Z" transform="translate(-10.97 173.11)" fill="#4faf69"></path></g><g transform="matrix(1, 0, 0, 1, 10.97, -328.02)" filter="url(#l)"><path d="M0,110.421H74.387V38.544L0,48.8Z" transform="translate(-10.97 304.2)" fill="#4faf69"></path></g><g transform="matrix(1, 0, 0, 1, 10.97, -328.02)" filter="url(#n)"><path d="M216.129,322.771,315.056,336.4V250.675H216.129Z" transform="translate(-144.54 173.11)" fill="#4faf69"></path></g><g transform="matrix(1, 0, 0, 1, 10.97, -328.02)" filter="url(#p)"><path d="M216.132,13.634V86.6h98.926V0Z" transform="translate(-144.54 328.02)" fill="#4faf69"></path></g></g><g transform="translate(716.025 364.024)" opacity="0.03"><g transform="matrix(1, 0, 0, 1, -716.03, -110.02)" filter="url(#r)"><path d="M0,304.9l66.386,9.149V250.677H0Z" transform="translate(716.03 -55.19)" fill="#554294"></path></g><g transform="matrix(1, 0, 0, 1, -716.03, -110.02)" filter="url(#t)"><path d="M0,102.691H66.386V38.544L0,47.693Z" transform="translate(716.03 84.62)" fill="#554294"></path></g><g transform="matrix(1, 0, 0, 1, -716.03, -110.02)" filter="url(#v)"><path d="M216.129,315.018l88.287,12.166V250.675H216.129Z" transform="translate(573.58 -55.19)" fill="#554294"></path></g><g transform="matrix(1, 0, 0, 1, -716.03, -110.02)" filter="url(#x)"><path d="M216.132,12.167V77.288h88.286V0Z" transform="translate(573.58 110.02)" fill="#554294"></path></g></g><g transform="translate(89 204.292)"><g transform="translate(0 0)"><path d="M136.81,0,32,40.76V151.393l34.937-11.646V46.582L136.81,34.937V163.55L32,151.393l104.81,34.937,58.228-17.468V17.468Z" transform="translate(-32)" opacity="0.06" fill="url(#z)"></path></g></g><g transform="translate(939 602.292)"><g transform="translate(0 0)"><path d="M136.81,0,32,40.76V151.393l34.937-11.646V46.582L136.81,34.937V163.55L32,151.393l104.81,34.937,58.228-17.468V17.468Z" transform="translate(-32)" opacity="0.09" fill="url(#z)"></path></g></g></g></svg> 