<?xml version="1.0" encoding="UTF-8"?> <!-- Generator: Adobe Illustrator 24.0.2, SVG Export Plug-In . SVG Version: 6.00 Build 0) --> <svg xmlns="http://www.w3.org/2000/svg" xmlns:xlink="http://www.w3.org/1999/xlink" version="1.1" id="Layer_1" x="0px" y="0px" viewBox="0 0 127.8 100.5" style="enable-background:new 0 0 127.8 100.5;" xml:space="preserve"> <style type="text/css"> .st0{fill:url(#SVGID_1_);} .st1{fill:#FFFFFF;} .st2{fill:url(#SVGID_2_);} </style> <g transform="translate(-310.219 -845.519)"> <g transform="translate(324.219 772.963)"> <linearGradient id="SVGID_1_" gradientUnits="userSpaceOnUse" x1="-245.5976" y1="541.9443" x2="-245.5976" y2="542.9443" gradientTransform="matrix(119.846 0 0 -81.525 29487.8086 44336.082)"> <stop offset="0" style="stop-color:#15956F"></stop> <stop offset="1" style="stop-color:#96D162"></stop> </linearGradient> <path class="st0" d="M105.4,72.6H2.5C-2.2,72.6-6,76.3-6,81c0,0,0,0,0,0v64.6c0,4.7,3.8,8.5,8.5,8.5h102.9c4.7,0,8.5-3.8,8.5-8.5 V81C113.8,76.4,110.1,72.6,105.4,72.6C105.4,72.6,105.4,72.6,105.4,72.6z"></path> <path class="st1" d="M21.8,143.3H9.4c-2.3,0-4.3-1.8-4.3-4.2s1.8-4.3,4.2-4.3c0,0,0.1,0,0.1,0h12.4c2.3,0,4.3,1.8,4.3,4.2 s-1.8,4.3-4.2,4.3C21.9,143.3,21.9,143.3,21.8,143.3z"></path> <path class="st1" d="M47.4,143.3H35c-2.3,0-4.3-1.8-4.3-4.2c0-2.3,1.8-4.3,4.2-4.3c0,0,0.1,0,0.1,0h12.4c2.3,0,4.3,1.8,4.3,4.2 c0,2.3-1.8,4.3-4.2,4.3C47.5,143.3,47.4,143.3,47.4,143.3z"></path> <path class="st1" d="M72.9,143.3H60.5c-2.3,0-4.2-2-4.2-4.3c0-2.3,1.9-4.1,4.2-4.2h12.4c2.3,0,4.3,1.8,4.3,4.2 c0,2.3-1.8,4.3-4.2,4.3C73,143.3,72.9,143.3,72.9,143.3L72.9,143.3z"></path> <path class="st1" d="M98.4,143.3H86c-2.3,0-4.3-1.8-4.3-4.2s1.8-4.3,4.2-4.3c0,0,0.1,0,0.1,0h12.4c2.3,0,4.3,1.8,4.3,4.2 s-1.8,4.3-4.2,4.3C98.5,143.3,98.5,143.3,98.4,143.3z"></path> </g> <rect x="318" y="866" class="st1" width="120" height="14"></rect> <g transform="translate(316.219 791.963)"> <g transform="matrix(1, 0, 0, 1, -6, 53.56)"> <linearGradient id="SVGID_2_" gradientUnits="userSpaceOnUse" x1="-231.5976" y1="470.3843" x2="-231.5976" y2="469.3843" gradientTransform="matrix(119.846 0 0 -81.526 27815.9648 38367.5547)"> <stop offset="0" style="stop-color:#15956F"></stop> <stop offset="1" style="stop-color:#96D162"></stop> </linearGradient> <path class="st2" d="M111.4,100.5H8.5c-4.7,0-8.5-3.8-8.5-8.5c0,0,0,0,0,0V27.5C0,22.8,3.8,19,8.5,19h102.9 c4.7,0,8.5,3.8,8.5,8.5V92C119.8,96.7,116.1,100.5,111.4,100.5C111.4,100.5,111.4,100.5,111.4,100.5z"></path> </g> <g transform="matrix(1, 0, 0, 1, -6, 53.56)"> <circle class="st1" cx="96.8" cy="42" r="10.3"></circle> </g> <path class="st1" d="M21.8,143.3H9.4c-2.3,0-4.3-1.8-4.3-4.2s1.8-4.3,4.2-4.3c0,0,0.1,0,0.1,0h12.4c2.3,0,4.3,1.8,4.3,4.2 s-1.8,4.3-4.2,4.3C21.9,143.3,21.9,143.3,21.8,143.3z"></path> <path class="st1" d="M47.4,143.3H35c-2.3,0-4.3-1.8-4.3-4.2c0-2.3,1.8-4.3,4.2-4.3c0,0,0.1,0,0.1,0h12.4c2.3,0,4.3,1.8,4.3,4.2 c0,2.3-1.8,4.3-4.2,4.3C47.5,143.3,47.4,143.3,47.4,143.3z"></path> <path class="st1" d="M72.9,143.3H60.5c-2.3,0-4.2-2-4.2-4.3c0-2.3,1.9-4.1,4.2-4.2h12.4c2.3,0,4.3,1.8,4.3,4.2 c0,2.3-1.8,4.3-4.2,4.3C73,143.3,72.9,143.3,72.9,143.3L72.9,143.3z"></path> <path class="st1" d="M98.4,143.3H86c-2.3,0-4.3-1.8-4.3-4.2s1.8-4.3,4.2-4.3c0,0,0.1,0,0.1,0h12.4c2.3,0,4.3,1.8,4.3,4.2 s-1.8,4.3-4.2,4.3C98.5,143.3,98.5,143.3,98.4,143.3z"></path> <g transform="matrix(1, 0, 0, 1, -6, 53.56)"> <circle class="st1" cx="82" cy="42" r="10.3"></circle> </g> </g> </g> </svg> 