<?xml version="1.0" encoding="UTF-8"?> <!-- Generator: Adobe Illustrator 24.0.2, SVG Export Plug-In . SVG Version: 6.00 Build 0) --> <svg xmlns="http://www.w3.org/2000/svg" xmlns:xlink="http://www.w3.org/1999/xlink" version="1.1" id="Layer_1" x="0px" y="0px" viewBox="0 0 145.1 121.2" style="enable-background:new 0 0 145.1 121.2;" xml:space="preserve"> <style type="text/css"> .st0{fill:url(#SVGID_1_);} .st1{fill:#FFFFFF;} .st2{fill:url(#SVGID_2_);} </style> <g transform="translate(-13 -35)"> <g transform="translate(27.599 42.311)"> <linearGradient id="SVGID_1_" gradientUnits="userSpaceOnUse" x1="-236.3826" y1="471.4168" x2="-236.3826" y2="470.4168" gradientTransform="matrix(130.505 0 0 -113.8443 30914.3633 53668.0977)"> <stop offset="0" style="stop-color:#C44092"></stop> <stop offset="0" style="stop-color:#7F65CB"></stop> <stop offset="1" style="stop-color:#40C3FF"></stop> </linearGradient> <path class="st0" d="M125.8,10.9H65.2V0L0,10.9l10.7,43.3l35.5-3v44.1c0,2.6,2.1,4.7,4.7,4.7l0,0h40.1l12.6,12.6 c1.8,1.8,4.8,1.8,6.6,0c0.9-0.9,1.4-2.1,1.4-3.3v-9.3h14.3c2.6,0,4.7-2.1,4.7-4.7l0,0V15.6C130.5,13,128.4,10.9,125.8,10.9 L125.8,10.9z"></path> <g transform="matrix(1, 0, 0, 1, -14.6, -7.31)"> <ellipse class="st1" cx="80.6" cy="61.1" rx="7.5" ry="8"></ellipse> </g> <g transform="matrix(1, 0, 0, 1, -14.6, -7.31)"> <ellipse class="st1" cx="99.6" cy="61.1" rx="7.5" ry="8"></ellipse> </g> <g transform="matrix(1, 0, 0, 1, -14.6, -7.31)"> <ellipse class="st1" cx="117.6" cy="61.1" rx="7.5" ry="8"></ellipse> </g> </g> <g transform="translate(13 35)"> <linearGradient id="SVGID_2_" gradientUnits="userSpaceOnUse" x1="-221.3244" y1="477.3934" x2="-221.3244" y2="478.3934" gradientTransform="matrix(102.96 0 0 -102.9563 22839.041 49253.6016)"> <stop offset="0" style="stop-color:#C44092"></stop> <stop offset="0" style="stop-color:#7F65CB"></stop> <stop offset="1" style="stop-color:#40C3FF"></stop> </linearGradient> <path class="st2" d="M103,33C103,14.9,88.4,0.1,70.3,0H33C14.8,0.1,0.1,14.8,0,33v28c0,6.2,2.5,12.2,7,16.5 c3.3,3.2,7.4,5.4,11.9,6.3v14.5c0,2.6,2.1,4.7,4.7,4.7c1.2,0,2.4-0.5,3.3-1.4l17.3-17.3h26.1c18,0,32.6-14.6,32.7-32.7L103,33z"></path> <g transform="matrix(1, 0, 0, 1, 0, 0)"> <path class="st1" d="M51.6,60.3c-2.6,0-4.7,2.1-4.7,4.7c0,2.6,2.1,4.7,4.7,4.7s4.7-2.1,4.7-4.7C56.3,62.4,54.2,60.3,51.6,60.3 L51.6,60.3z M51.6,18.4c-7.7,0-14,6.3-14,14c0,2.6,2,4.7,4.6,4.7s4.7-2,4.7-4.6c0,0,0-0.1,0-0.1c0-2.6,2.1-4.7,4.7-4.7 c2.6,0,4.7,2.1,4.7,4.7c0,1.9-1.2,3.6-2.9,4.3C49.5,38.2,47,42,47,46.1v0.2c0,2.6,2,4.7,4.6,4.7s4.7-2,4.7-4.6c0,0,0-0.1,0-0.1 v-0.2c0-0.3,0.2-0.6,0.5-0.8c7.2-2.9,10.7-11,7.8-18.2C62.5,21.8,57.4,18.4,51.6,18.4L51.6,18.4z"></path> </g> </g> </g> </svg> 