<?xml version="1.0" encoding="UTF-8"?> <!-- Generator: Adobe Illustrator 24.0.2, SVG Export Plug-In . SVG Version: 6.00 Build 0) --> <svg xmlns="http://www.w3.org/2000/svg" xmlns:xlink="http://www.w3.org/1999/xlink" version="1.1" id="Layer_1" x="0px" y="0px" viewBox="0 0 115.5 104.4" style="enable-background:new 0 0 115.5 104.4;" xml:space="preserve"> <style type="text/css"> .st0{fill:#E57C2A;} .st1{fill:url(#SVGID_1_);} .st2{fill:#FFFFFF;} </style> <g transform="translate(0 -25)"> <path class="st0" d="M57.8,53.9L57.8,53.9c-1.2,0-2.2-0.6-2.8-1.6L44,34.5c-0.6-1-0.7-2.3-0.1-3.4c0.6-1.1,1.7-1.7,2.9-1.7h48.7 c5.5,0,10,4.5,10,10v11.1c0,1.8-1.5,3.3-3.3,3.3L57.8,53.9z"></path> <linearGradient id="SVGID_1_" gradientUnits="userSpaceOnUse" x1="-236.4313" y1="494.3562" x2="-236.4313" y2="493.3562" gradientTransform="matrix(115.5309 0 0 -104.419 27372.8789 51645.1563)"> <stop offset="0" style="stop-color:#FF8476"></stop> <stop offset="1" style="stop-color:#FF9B43"></stop> </linearGradient> <path class="st1" d="M57.8,129.4H10c-5.5,0-10-4.5-10-10V35c0-5.5,4.5-10,10-10h34.2c1.2,0,2.2,0.6,2.8,1.6l10.8,17.6l0,0l1.9,3 h45.9c5.5,0,10,4.5,10,10v62.2l0,0c0,4.8-3.4,8.9-8.1,9.8c-0.6,0.1-1.3,0.2-1.9,0.2L57.8,129.4z"></path> <g transform="matrix(1, 0, 0, 1, 0, 25)"> <path class="st2" d="M71.1,66.6h-3.3V49.9c0-1.8-1.5-3.3-3.3-3.3l0,0H51.1c-1.8,0-3.3,1.5-3.3,3.3l0,0v16.7h-3.3 c-1.8,0-3.3,1.5-3.3,3.3c0,0,0,0,0,0v8.9c0,1.1,0.6,2.2,1.5,2.8l13.3,8.9c1.1,0.7,2.6,0.7,3.7,0l13.3-8.9c0.9-0.6,1.5-1.7,1.5-2.8 v-8.9C74.4,68.1,72.9,66.6,71.1,66.6C71.1,66.6,71.1,66.6,71.1,66.6z"></path> </g> <g transform="matrix(1, 0, 0, 1, 0, 25)"> <path class="st2" d="M71.1,66.6h-3.3V49.9c0-1.8-1.5-3.3-3.3-3.3l0,0h-6.7V91c0.7,0,1.3-0.2,1.8-0.6l13.3-8.9 c0.9-0.6,1.5-1.7,1.5-2.8v-8.9C74.4,68.1,72.9,66.6,71.1,66.6L71.1,66.6z"></path> </g> </g> </svg> 