<?xml version="1.0" encoding="UTF-8"?> <svg xmlns="http://www.w3.org/2000/svg" xmlns:xlink="http://www.w3.org/1999/xlink" width="226.248" height="101.313" viewBox="0 0 226.248 101.313"><defs><linearGradient id="a" y1="0.5" x2="1" y2="0.5" gradientUnits="objectBoundingBox"><stop offset="0" stop-color="#c44092"></stop><stop offset="0" stop-color="#7f65cb"></stop><stop offset="1" stop-color="#40c3ff"></stop></linearGradient></defs><g transform="translate(-2090.012 1768)"><g transform="translate(1926.653 -2075.171)"><g transform="translate(-28.97 -222.002)"><rect width="5.503" height="5.503" transform="translate(245.307 550.477)" fill="url(#a)"></rect><rect width="5.503" height="5.503" transform="translate(250.799 544.899)" fill="url(#a)"></rect><rect width="8.958" height="8.958" transform="translate(236.349 541.519)" fill="url(#a)"></rect><rect width="11.005" height="11.005" transform="translate(201.946 533.889)" fill="url(#a)"></rect><rect width="12.556" height="12.556" transform="translate(223.793 529.174)" fill="url(#a)"></rect><rect width="5.919" height="5.919" transform="translate(245.307 535.6)" fill="url(#a)"></rect><rect width="9.137" height="9.137" transform="translate(260.757 546.842)" fill="url(#a)"></rect><path d="M6602.23,582.335a41.936,41.936,0,0,1-40.578-52.383h8.155v-7.247h7.285V515.5h7.287v7.168h7.207v-7.206h-7.207v-7.247H6582.5v-.038h9.088v7.285h7.207v-7.207h7.559V515.5h7.784v-7.245h7.207v6.993h9.686V520.6h8.114a41.885,41.885,0,0,1-36.912,61.738Zm4.122-66.837h-7.559v7.56h7.559V515.5Z" transform="translate(-6360.586 47.651)" stroke="rgba(0,0,0,0)" stroke-miterlimit="10" stroke-width="1" fill="url(#a)"></path><rect width="11.005" height="11.005" transform="translate(212.806 544.974)" fill="url(#a)"></rect><rect width="7.023" height="7.023" transform="translate(202.198 563.431)" fill="url(#a)"></rect><rect width="9.868" height="9.868" transform="translate(192.33 553.563)" fill="url(#a)"></rect><rect width="5.349" height="5.349" transform="translate(231 550.477)" fill="url(#a)"></rect></g><circle cx="20.608" cy="20.608" r="20.608" transform="translate(192.481 346.193)" fill="#fff" opacity="0.2" style="isolation:isolate"></circle><path d="M274.512,382.126a3.125,3.125,0,0,1-2.232-.93L263.7,372.55a3.2,3.2,0,0,1,.07-4.495,3.14,3.14,0,0,1,4.388-.005l6.357,6.4,14.4-14.508a3.14,3.14,0,0,1,4.463,0,3.2,3.2,0,0,1,0,4.5L276.743,381.2A3.12,3.12,0,0,1,274.512,382.126Z" transform="translate(-65.857 -2.109)" fill="#fff"></path></g><path d="M15.791,0H2.406V-20.754H6.275V-3.568h9.516Zm7.858,0H19.793V-20.754h3.855Zm18.59-13.6a4.4,4.4,0,0,0-.444-1.675A4.061,4.061,0,0,0,40.8-16.55a4.329,4.329,0,0,0-1.442-.807,5.481,5.481,0,0,0-1.771-.28,5.889,5.889,0,0,0-2.406.472,4.906,4.906,0,0,0-1.825,1.395A6.426,6.426,0,0,0,32.2-13.494a10.882,10.882,0,0,0-.4,3.1,10.712,10.712,0,0,0,.41,3.1,6.649,6.649,0,0,0,1.155,2.276,4.934,4.934,0,0,0,1.8,1.408,5.631,5.631,0,0,0,2.372.485,5.659,5.659,0,0,0,1.825-.28A4.091,4.091,0,0,0,40.8-4.231a4.116,4.116,0,0,0,.984-1.354,5.611,5.611,0,0,0,.465-1.853H46.2a9.34,9.34,0,0,1-.868,3.3A7.584,7.584,0,0,1,43.489-1.7,7.947,7.947,0,0,1,40.844-.191a9.945,9.945,0,0,1-3.268.52,10.3,10.3,0,0,1-4.04-.759,8.579,8.579,0,0,1-3.062-2.153,9.627,9.627,0,0,1-1.948-3.377,13.528,13.528,0,0,1-.684-4.43,13.406,13.406,0,0,1,.69-4.43A9.725,9.725,0,0,1,30.494-18.2a8.605,8.605,0,0,1,3.069-2.16,10.224,10.224,0,0,1,4.013-.759,9.238,9.238,0,0,1,3.172.54,8.509,8.509,0,0,1,2.646,1.524,8.142,8.142,0,0,1,1.9,2.372A8.1,8.1,0,0,1,46.2-13.6ZM66.557,0H50.7V-20.754H66.106v3.568H54.567V-12.5h10.8v3.541h-10.8v5.387h11.99ZM87.744,0h-3.65L74.838-13.877V0H71.106V-20.754H74.77l9.215,13.9v-13.9h3.76Zm13.34.328a11.784,11.784,0,0,1-3.89-.581,7.837,7.837,0,0,1-2.782-1.62,6.806,6.806,0,0,1-1.7-2.481,9.187,9.187,0,0,1-.636-3.165h3.76a4.836,4.836,0,0,0,.54,1.921A4.29,4.29,0,0,0,97.5-4.252a4.562,4.562,0,0,0,1.565.786,6.789,6.789,0,0,0,1.88.253A7.223,7.223,0,0,0,102.67-3.4,4.505,4.505,0,0,0,104-3.944a2.552,2.552,0,0,0,.854-.854,2.178,2.178,0,0,0,.3-1.135,1.96,1.96,0,0,0-.294-1.094,2.547,2.547,0,0,0-.95-.807,8.324,8.324,0,0,0-1.723-.649q-1.066-.294-2.625-.608a19.149,19.149,0,0,1-3.062-.923,7.584,7.584,0,0,1-2.112-1.244,4.5,4.5,0,0,1-1.224-1.654,5.483,5.483,0,0,1-.4-2.153,5.347,5.347,0,0,1,.547-2.413,5.59,5.59,0,0,1,1.552-1.9,7.535,7.535,0,0,1,2.4-1.251,10.047,10.047,0,0,1,3.1-.451,10.309,10.309,0,0,1,3.247.485,7.469,7.469,0,0,1,2.536,1.395,6.419,6.419,0,0,1,1.675,2.229,7.5,7.5,0,0,1,.649,2.987h-3.719q-.41-3.541-4.279-3.541a5.4,5.4,0,0,0-2.885.636,1.97,1.97,0,0,0-1,1.743,1.405,1.405,0,0,0,.219.786,2.043,2.043,0,0,0,.7.615,5.922,5.922,0,0,0,1.23.513q.752.232,1.818.451.93.191,1.907.424a19.253,19.253,0,0,1,1.914.561,10.68,10.68,0,0,1,1.764.8,6.184,6.184,0,0,1,1.456,1.142,4.966,4.966,0,0,1,.991,1.579,5.722,5.722,0,0,1,.362,2.126,5.842,5.842,0,0,1-.588,2.625,6.11,6.11,0,0,1-1.634,2.044,7.728,7.728,0,0,1-2.5,1.333A10.019,10.019,0,0,1,101.084.328ZM129.327,0H113.467V-20.754h15.408v3.568H117.336V-12.5h10.8v3.541h-10.8v5.387h11.99Z" transform="translate(2186.934 -1678.293)" fill="#707070"></path><path d="M13.745.387a12.524,12.524,0,0,1-4.85-.91A10.726,10.726,0,0,1,5.148-3.086a11.6,11.6,0,0,1-2.417-3.98,14.826,14.826,0,0,1-.862-5.18,14.975,14.975,0,0,1,.862-5.229,11.429,11.429,0,0,1,2.417-3.964A10.607,10.607,0,0,1,8.87-23.96a12.508,12.508,0,0,1,4.778-.886,12.965,12.965,0,0,1,4.093.628,10.661,10.661,0,0,1,3.344,1.781,9.181,9.181,0,0,1,2.336,2.78,9.135,9.135,0,0,1,1.072,3.642H19.8a5.253,5.253,0,0,0-.556-2.006A4.512,4.512,0,0,0,18-19.513a5.645,5.645,0,0,0-1.877-.935A8.522,8.522,0,0,0,13.7-20.77a7.3,7.3,0,0,0-2.908.564,6.173,6.173,0,0,0-2.256,1.652A7.723,7.723,0,0,0,7.066-15.88a11.584,11.584,0,0,0-.524,3.634,11.47,11.47,0,0,0,.524,3.6A7.9,7.9,0,0,0,8.532-5.954,6.323,6.323,0,0,0,10.8-4.262a7.092,7.092,0,0,0,2.917.588,10.229,10.229,0,0,0,3.907-.669,6.65,6.65,0,0,0,2.731-2.087V-8.991H14.292V-13.2h10.57V0H21.35l-.58-1.756a8.614,8.614,0,0,1-3.021,1.6A13.579,13.579,0,0,1,13.745.387Zm23.091,0A9.725,9.725,0,0,1,33.3-.234a7.634,7.634,0,0,1-2.755-1.8,8.067,8.067,0,0,1-1.781-2.908,11.385,11.385,0,0,1-.628-3.916,11.43,11.43,0,0,1,.612-3.859,8.35,8.35,0,0,1,1.716-2.908,7.5,7.5,0,0,1,2.643-1.837,8.738,8.738,0,0,1,3.408-.645,9.175,9.175,0,0,1,3.48.628,7.284,7.284,0,0,1,2.643,1.813,8.038,8.038,0,0,1,1.684,2.908,12.041,12.041,0,0,1,.588,3.9v1.4H32.727a6.491,6.491,0,0,0,.532,1.821,4.452,4.452,0,0,0,.9,1.289,3.5,3.5,0,0,0,1.217.773,4.1,4.1,0,0,0,1.458.258A3.65,3.65,0,0,0,38-3.513a3.313,3.313,0,0,0,1.047-.572,3.061,3.061,0,0,0,.765-.927,2.753,2.753,0,0,0,.314-1.273h4.608A8.335,8.335,0,0,1,43.8-3.432a7.153,7.153,0,0,1-1.732,2.087A7.427,7.427,0,0,1,39.688-.056,9.011,9.011,0,0,1,36.836.387ZM40.2-11.15A4.561,4.561,0,0,0,38.826-13.6a3.476,3.476,0,0,0-2.312-.806,3.5,3.5,0,0,0-2.288.806,4.484,4.484,0,0,0-1.4,2.449Zm12.424-5.495a6.551,6.551,0,0,1,4.109-1.466Q63-18.111,63-11.36V0h-4.4V-11.231a3.965,3.965,0,0,0-.532-2.336,2.054,2.054,0,0,0-1.756-.709q-1.772,0-3.69,2.143V0H48.261V-17.692h4.367ZM77.668-1.08A6.66,6.66,0,0,1,73.511.387q-6.268,0-6.268-6.735V-17.692h4.415v11.2a3.913,3.913,0,0,0,.54,2.344,2.069,2.069,0,0,0,1.748.7,4.845,4.845,0,0,0,3.722-2.127V-17.692h4.351V0H77.668ZM90.543,0H86.193V-17.692h4.351Zm0-19.352H86.193v-4.56h4.351Zm8.09,2.707a6.551,6.551,0,0,1,4.109-1.466q6.268,0,6.268,6.751V0h-4.4V-11.231a3.965,3.965,0,0,0-.532-2.336,2.054,2.054,0,0,0-1.756-.709q-1.772,0-3.69,2.143V0H94.266V-17.692h4.367ZM121,.387a9.725,9.725,0,0,1-3.537-.62,7.634,7.634,0,0,1-2.755-1.8,8.067,8.067,0,0,1-1.781-2.908,11.385,11.385,0,0,1-.628-3.916,11.43,11.43,0,0,1,.612-3.859,8.35,8.35,0,0,1,1.716-2.908,7.5,7.5,0,0,1,2.643-1.837,8.738,8.738,0,0,1,3.408-.645,9.175,9.175,0,0,1,3.48.628A7.284,7.284,0,0,1,126.8-15.67a8.038,8.038,0,0,1,1.684,2.908,12.041,12.041,0,0,1,.588,3.9v1.4H116.89a6.491,6.491,0,0,0,.532,1.821,4.452,4.452,0,0,0,.9,1.289,3.5,3.5,0,0,0,1.217.773A4.1,4.1,0,0,0,121-3.319a3.65,3.65,0,0,0,1.16-.193,3.313,3.313,0,0,0,1.047-.572,3.061,3.061,0,0,0,.765-.927,2.753,2.753,0,0,0,.314-1.273h4.608a8.335,8.335,0,0,1-.935,2.852,7.153,7.153,0,0,1-1.732,2.087,7.427,7.427,0,0,1-2.377,1.289A9.011,9.011,0,0,1,121,.387Zm3.368-11.537a4.561,4.561,0,0,0-1.378-2.449,3.476,3.476,0,0,0-2.312-.806,3.5,3.5,0,0,0-2.288.806,4.484,4.484,0,0,0-1.4,2.449Z" transform="translate(2186.934 -1705.579)" fill="#ff643d"></path></g></svg> 