<?xml version="1.0" encoding="UTF-8"?> <svg xmlns="http://www.w3.org/2000/svg" xmlns:xlink="http://www.w3.org/1999/xlink" width="91.715" height="101.313" viewBox="0 0 91.715 101.313"><defs><linearGradient id="a" y1="0.5" x2="1" y2="0.5" gradientUnits="objectBoundingBox"><stop offset="0" stop-color="#c44092"></stop><stop offset="0" stop-color="#7f65cb"></stop><stop offset="1" stop-color="#40c3ff"></stop></linearGradient></defs><g transform="translate(-163.36 -307.171)"><g transform="translate(-28.97 -222.002)"><rect width="5.503" height="5.503" transform="translate(245.307 550.477)" fill="url(#a)"></rect><rect width="5.503" height="5.503" transform="translate(250.799 544.899)" fill="url(#a)"></rect><rect width="8.958" height="8.958" transform="translate(236.349 541.519)" fill="url(#a)"></rect><rect width="11.005" height="11.005" transform="translate(201.946 533.889)" fill="url(#a)"></rect><rect width="12.556" height="12.556" transform="translate(223.793 529.174)" fill="url(#a)"></rect><rect width="5.919" height="5.919" transform="translate(245.307 535.6)" fill="url(#a)"></rect><rect width="9.137" height="9.137" transform="translate(260.757 546.842)" fill="url(#a)"></rect><path d="M6602.23,582.335a41.936,41.936,0,0,1-40.578-52.383h8.155v-7.247h7.285V515.5h7.287v7.168h7.207v-7.206h-7.207v-7.247H6582.5v-.038h9.088v7.285h7.207v-7.207h7.559V515.5h7.784v-7.245h7.207v6.993h9.686V520.6h8.114a41.885,41.885,0,0,1-36.912,61.738Zm4.122-66.837h-7.559v7.56h7.559V515.5Z" transform="translate(-6360.586 47.651)" stroke="rgba(0,0,0,0)" stroke-miterlimit="10" stroke-width="1" fill="url(#a)"></path><rect width="11.005" height="11.005" transform="translate(212.806 544.974)" fill="url(#a)"></rect><rect width="7.023" height="7.023" transform="translate(202.198 563.431)" fill="url(#a)"></rect><rect width="9.868" height="9.868" transform="translate(192.33 553.563)" fill="url(#a)"></rect><rect width="5.349" height="5.349" transform="translate(231 550.477)" fill="url(#a)"></rect></g><circle cx="20.608" cy="20.608" r="20.608" transform="translate(192.481 346.193)" fill="#fff" opacity="0.2" style="isolation:isolate"></circle><path d="M274.512,382.126a3.125,3.125,0,0,1-2.232-.93L263.7,372.55a3.2,3.2,0,0,1,.07-4.495,3.14,3.14,0,0,1,4.388-.005l6.357,6.4,14.4-14.508a3.14,3.14,0,0,1,4.463,0,3.2,3.2,0,0,1,0,4.5L276.743,381.2A3.12,3.12,0,0,1,274.512,382.126Z" transform="translate(-65.857 -2.109)" fill="#fff"></path></g></svg> 