<?xml version="1.0" encoding="UTF-8"?> <!-- Generator: Adobe Illustrator 24.0.2, SVG Export Plug-In . SVG Version: 6.00 Build 0) --> <svg xmlns="http://www.w3.org/2000/svg" xmlns:xlink="http://www.w3.org/1999/xlink" version="1.1" id="Layer_1" x="0px" y="0px" viewBox="0 0 164 115.3" style="enable-background:new 0 0 164 115.3;" xml:space="preserve"> <style type="text/css"> .st0{fill:url(#SVGID_1_);} .st1{fill:#FFFFFF;} </style> <g transform="translate(0 -16)"> <g transform="translate(0 16)"> <linearGradient id="SVGID_1_" gradientUnits="userSpaceOnUse" x1="-213.1855" y1="474.3566" x2="-213.1915" y2="475.6206" gradientTransform="matrix(163.9815 0 0 -115.3029 35041.0195 54854.3906)"> <stop offset="0" style="stop-color:#E20E9A"></stop> <stop offset="0.296" style="stop-color:#F69E4D"></stop> <stop offset="1" style="stop-color:#FFDD00"></stop> </linearGradient> <path class="st0" d="M133.1,39.5C125.7,11.3,96.9-5.6,68.7,1.7C50.2,6.6,35.7,21,30.9,39.5C10.2,43.5-3.3,63.7,0.7,84.4 c3.6,18.1,19.6,31.1,38,30.9h86.5c21.1,0.3,38.5-16.7,38.8-37.8C164.2,59,151.2,43,133.1,39.5L133.1,39.5z"></path> </g> <g transform="translate(57.971 44.826)"> <g transform="matrix(1, 0, 0, 1, -57.97, -28.83)"> <path class="st1" d="M62.8,86.5h38.4c2.7,0,4.8-2.1,4.8-4.8l0,0v-9.6c0-2.7-2.2-4.8-4.8-4.8c-2.7,0-4.8,2.2-4.8,4.8v4.8H67.6 v-4.8c0-2.7-2.2-4.8-4.8-4.8c-2.7,0-4.8,2.2-4.8,4.8v9.6C58,84.3,60.1,86.5,62.8,86.5L62.8,86.5z M78.6,65.9 c1.9,1.9,4.9,1.9,6.8,0c0,0,0,0,0,0l9.6-9.6c1.9-1.9,1.9-4.9,0-6.8c-1.9-1.9-4.9-1.9-6.8,0l-1.4,1.4V33.6c0-2.7-2.2-4.8-4.8-4.8 c-2.7,0-4.8,2.2-4.8,4.8v17.2l-1.4-1.4c-1.9-1.9-4.9-1.9-6.8,0s-1.9,4.9,0,6.8L78.6,65.9z"></path> </g> </g> </g> </svg> 