<?xml version="1.0" encoding="UTF-8"?> <!-- Generator: Adobe Illustrator 24.0.2, SVG Export Plug-In . SVG Version: 6.00 Build 0) --> <svg xmlns="http://www.w3.org/2000/svg" xmlns:xlink="http://www.w3.org/1999/xlink" version="1.1" id="Layer_1" x="0px" y="0px" viewBox="0 0 123.8 123.8" style="enable-background:new 0 0 123.8 123.8;" xml:space="preserve"> <style type="text/css"> .st0{fill:url(#SVGID_1_);} .st1{fill:#FFFFFF;stroke:#FFFFFF;stroke-width:3;} .st2{fill:#FFFFFF;stroke:#FFFFFF;} </style> <g transform="translate(-0.301 -0.184)"> <linearGradient id="SVGID_1_" gradientUnits="userSpaceOnUse" x1="-232.3008" y1="480.1736" x2="-232.3008" y2="479.1736" gradientTransform="matrix(123.7982 0 0 -123.778 28820.6191 59435.1133)"> <stop offset="0" style="stop-color:#FEC183"></stop> <stop offset="1" style="stop-color:#FF3A70"></stop> </linearGradient> <path class="st0" d="M110.6,112.3c-19,15.5-78.2,15.5-96.8,0c-19-15.5-17-81.7,0-99.1s79.7-17.4,96.8,0S129.6,96.9,110.6,112.3z"></path> <g transform="translate(17.082 25.803)"> <g transform="matrix(1, 0, 0, 1, -16.78, -25.62)"> <path class="st1" d="M61.9,25.6c-17.1,0-31.9,12.1-35.3,28.9l-5.6-6.7l-4.3,3.5l9.8,12c0.8,1,2.2,1.3,3.4,0.7l14-6.7l-2.5-4.9 l-9.6,4.5C34.5,40.3,50,29,66.6,31.5s28,18.1,25.4,34.7C89.7,81.1,76.9,92,61.9,92v5.5c19.9,0,36-16.1,36-36S81.8,25.6,61.9,25.6 L61.9,25.6z"></path> </g> </g> <g transform="matrix(1, 0, 0, 1, 0.3, 0.18)"> <path class="st2" d="M53.4,56.8h9.5c-0.1-0.5-0.3-0.9-0.5-1.4c-0.3-0.4-0.6-0.8-1.1-1.1c-0.5-0.3-1.1-0.5-1.7-0.7 c-0.8-0.2-1.6-0.2-2.4-0.2h-3.9l0-3.3h18.9v3.3h-6.1c0.4,0.4,0.7,0.9,1,1.5c0.3,0.6,0.4,1.2,0.5,1.8h4.6v3.3h-4.7 c-0.3,1.5-1.1,2.8-2.2,3.8c-1.2,1.1-2.7,1.9-4.3,2.2v0.1c0.4,0.2,0.9,0.5,1.3,0.7c0.4,0.3,0.8,0.6,1.1,1c0.4,0.4,0.8,0.8,1.1,1.3 c0.4,0.5,0.7,1,1.1,1.6l5.5,8.3h-5.4l-4.6-7.5c-0.4-0.7-0.9-1.4-1.3-1.9c-0.4-0.5-0.8-1-1.3-1.4c-0.4-0.4-1-0.6-1.5-0.8 c-0.6-0.2-1.3-0.3-1.9-0.3h-1.9v-3.5h3.8c0.7,0,1.3-0.1,2-0.3c0.6-0.2,1.2-0.4,1.7-0.8c0.5-0.3,0.9-0.7,1.3-1.2 c0.3-0.4,0.6-1,0.7-1.5h-9.5V56.8z"></path> </g> </g> </svg> 