<?xml version="1.0" encoding="UTF-8"?> <svg xmlns="http://www.w3.org/2000/svg" width="258.256" height="30.442" viewBox="0 0 258.256 30.442"><g transform="translate(-1192.001 -3501)"><g transform="translate(1192.001 3501)"><path d="M-277.331-16.682l-.152-.662-.152.509-.1.254-.814,2.188h1.68Q-277.077-15.508-277.331-16.682Zm5.4-7.686a2.357,2.357,0,0,0-.711-1.73,2.357,2.357,0,0,0-1.73-.711H-298.81a2.357,2.357,0,0,0-1.73.711,2.357,2.357,0,0,0-.711,1.73V-6.45a2.357,2.357,0,0,0,.711,1.73,2.357,2.357,0,0,0,1.73.711h24.434a2.357,2.357,0,0,0,1.73-.711,2.357,2.357,0,0,0,.711-1.73Zm-21.536,12.776h-2.188l-1.832-6.871a8.552,8.552,0,0,0-2.138-.869l.051-.152h3.258q.814.051.967.662l.916,4.734,1.986-5.4h2.188Zm4.785,0h-2.036l1.272-7.89h2.036Zm7.126-2.545a2.324,2.324,0,0,1-.993,1.959,4.2,4.2,0,0,1-2.571.738,5.937,5.937,0,0,1-2.29-.458l.306-1.782.254.152a3.562,3.562,0,0,0,.916.331,5.157,5.157,0,0,0,.941.079,1.923,1.923,0,0,0,.916-.2.62.62,0,0,0,.382-.56.655.655,0,0,0-.254-.483,3.293,3.293,0,0,0-.814-.483q-1.832-.916-1.807-2.113a2.388,2.388,0,0,1,.993-1.934,4,4,0,0,1,2.494-.738,4.765,4.765,0,0,1,1.832.356l-.306,1.68-.2-.051a2.944,2.944,0,0,0-1.527-.306,1.426,1.426,0,0,0-.84.2.657.657,0,0,0-.306.458.5.5,0,0,0,.254.458,6.768,6.768,0,0,0,.891.509q1.735.863,1.735,2.186Zm7.178,2.545h-1.884l-.254-1.17h-2.647l-.408,1.17h-2.138l3.054-7.228a1.027,1.027,0,0,1,1.069-.662h1.58ZM-241.1-7.57a.553.553,0,0,0-.152-.408.553.553,0,0,0-.408-.152.553.553,0,0,0-.408.152.553.553,0,0,0-.152.408.642.642,0,0,0,.152.433.509.509,0,0,0,.408.178.509.509,0,0,0,.408-.178.642.642,0,0,0,.156-.433Zm-15.831-.56a.553.553,0,0,1,.408.152.553.553,0,0,1,.152.408.642.642,0,0,1-.152.433.509.509,0,0,1-.408.178.509.509,0,0,1-.408-.178.642.642,0,0,1-.152-.433.553.553,0,0,1,.152-.408.553.553,0,0,1,.411-.152Zm6.006-.051q.408,0,.458.458h-.967a.459.459,0,0,1,.153-.345.459.459,0,0,1,.36-.114Zm5.449.051a.642.642,0,0,1,.433.152.509.509,0,0,1,.179.408.589.589,0,0,1-.179.433.589.589,0,0,1-.433.178.438.438,0,0,1-.381-.178.881.881,0,0,1-.152-.433.478.478,0,0,1,.127-.408.553.553,0,0,1,.408-.152Zm5.4,1.324-.051-.1h-.051l-.1.051-.051.1.1.1.051.051.1-.1Zm-.1.051.051.051h-.051l-.051-.051v.051h-.051v-.152h.152v.1Zm3.818-17.562a2.357,2.357,0,0,0-.711-1.73,2.357,2.357,0,0,0-1.73-.711h-24.433a2.357,2.357,0,0,0-1.73.711,2.357,2.357,0,0,0-.711,1.73V-6.4a2.357,2.357,0,0,0,.711,1.73,2.357,2.357,0,0,0,1.73.711H-238.8a2.357,2.357,0,0,0,1.73-.711,2.357,2.357,0,0,0,.711-1.73Zm-26.063,7.126a6.858,6.858,0,0,1,.939-3.537,7.178,7.178,0,0,1,2.571-2.571,6.761,6.761,0,0,1,3.512-.967,6.783,6.783,0,0,1,3.92,1.222,7.476,7.476,0,0,0-2.444,3.665A7.545,7.545,0,0,0-253.951-15a7.2,7.2,0,0,0,2.469,3.665,6.99,6.99,0,0,1-3.92,1.17,6.9,6.9,0,0,1-3.512-.941,6.921,6.921,0,0,1-2.571-2.571,6.9,6.9,0,0,1-.938-3.513Zm11.4,5.5a6.625,6.625,0,0,1-2.369-3.41,7,7,0,0,1,0-4.174,6.9,6.9,0,0,1,2.369-3.462,6.9,6.9,0,0,1,2.369,3.462,7,7,0,0,1,0,4.174,6.625,6.625,0,0,1-2.369,3.41Zm-7.226,3.92V-6.6h-.408v-.454a3.074,3.074,0,0,0-.079-.84.39.39,0,0,0-.381-.254.321.321,0,0,0-.381.229,3.387,3.387,0,0,0-.079.869l.051.458h-.408v-.462a3.073,3.073,0,0,0-.079-.84.39.39,0,0,0-.381-.254.321.321,0,0,0-.382.229,3.389,3.389,0,0,0-.079.869V-6.6h-.408V-8.486h.408v.2a.706.706,0,0,1,.585-.254.641.641,0,0,1,.585.356.66.66,0,0,1,.611-.356.829.829,0,0,1,.611.2A.757.757,0,0,1-258.247-7.774Zm2.29-.711V-6.6h-.408v-.254a.685.685,0,0,1-.61.306.853.853,0,0,1-.662-.28,1.019,1.019,0,0,1-.254-.711,1.019,1.019,0,0,1,.254-.711A.824.824,0,0,1-257-8.53a.863.863,0,0,1,.637.254v-.2Zm2.036,1.324q0,.458-.611.56a1.278,1.278,0,0,1-1.018-.2l.152-.306a1.211,1.211,0,0,0,.687.2q.381,0,.381-.2t-.408-.254a.983.983,0,0,1-.51-.155.4.4,0,0,1-.254-.408q0-.509.56-.585a1.411,1.411,0,0,1,.967.178l-.152.306a1.406,1.406,0,0,0-.637-.152q-.331,0-.331.178t.381.254a5.107,5.107,0,0,1,.535.127.5.5,0,0,1,.254.457Zm1.832.458a.978.978,0,0,1-.738.127q-.433-.079-.433-.687v-.869h-.407v-.356h.408v-.56h.408v.56h.662v.356h-.662v.869q0,.306.2.306a.9.9,0,0,0,.4-.1Zm.662-.662a.449.449,0,0,0,.433.408.856.856,0,0,0,.687-.2l.2.306a1.174,1.174,0,0,1-1.12.229.859.859,0,0,1-.61-.941.984.984,0,0,1,.254-.687.853.853,0,0,1,.662-.28q.869,0,.869,1.17Zm3-1.12-.1.408a.632.632,0,0,0-.433-.051q-.229.051-.229.458V-6.6h-.408V-8.486h.408v.2a.464.464,0,0,1,.331-.254.632.632,0,0,1,.434.051Zm.56.916a.553.553,0,0,0,.331.585.7.7,0,0,0,.687-.127l.2.306a.9.9,0,0,1-.662.254,1.08,1.08,0,0,1-.711-.254.938.938,0,0,1-.306-.764.873.873,0,0,1,.61-.891,1.04,1.04,0,0,1,1.069.127l-.2.356a.7.7,0,0,0-.687-.127.513.513,0,0,0-.332.533Zm3.36-.916V-6.6h-.408v-.254a.639.639,0,0,1-.56.306.963.963,0,0,1-.662-.28.954.954,0,0,1-.306-.738.915.915,0,0,1,.28-.711.948.948,0,0,1,.662-.254.706.706,0,0,1,.585.254v-.2Zm1.73,0-.1.408a.546.546,0,0,0-.433-.025q-.229.079-.229.433V-6.6h-.408V-8.486h.408v.2a.415.415,0,0,1,.356-.229,1,1,0,0,1,.408.025Zm2.036-.764V-6.6h-.408v-.254a.547.547,0,0,1-.535.306.991.991,0,0,1-.687-.28.954.954,0,0,1-.306-.738.877.877,0,0,1,.306-.711,1.013,1.013,0,0,1,.662-.254.678.678,0,0,1,.56.254V-9.25Zm.408-3.818h-.1v-.051h.254v.051h-.1v.254h-.051Zm.306,6.312-.1.152h-.152l-.051-.051a.045.045,0,0,1-.038-.013.045.045,0,0,1-.013-.038v-.152l.051-.051.152-.051.152.1Zm.2-6.363v.306h-.051v-.256l-.1.2h-.051l-.1-.2v.254h0v-.306h.051l.1.2.051-.2Zm.2-4.072a6.9,6.9,0,0,1-.941,3.512,6.921,6.921,0,0,1-2.571,2.571,6.9,6.9,0,0,1-3.512.941,6.99,6.99,0,0,1-3.92-1.17A7.2,7.2,0,0,0-248.094-15a7.632,7.632,0,0,0-.025-4.4,7.471,7.471,0,0,0-2.444-3.691,6.99,6.99,0,0,1,3.92-1.17,6.76,6.76,0,0,1,3.512.967,7.178,7.178,0,0,1,2.571,2.571,6.858,6.858,0,0,1,.941,3.536Z" transform="translate(386.348 30.909)" fill="#fff"></path><g transform="translate(0)"><path d="M13.2,10.25a13.2,13.2,0,1,0,13.2,13.2,13.2,13.2,0,0,0-13.2-13.2Zm-.049,4.141a9.056,9.056,0,1,1-6.415,2.648,9.059,9.059,0,0,1,6.415-2.648Z" transform="translate(-0.001 -6.207)" fill="#feb511"></path><path d="M76.875,17.469v11.5h2.29V20.991l4.067,7.977H85.71v-11.5H83.42v7.173l-3.761-7.173Z" transform="translate(-46.557 -10.579)" fill="#fff"></path><path d="M105.826,24.688a4.382,4.382,0,1,0,3.112,1.279A4.394,4.394,0,0,0,105.826,24.688Zm.012,2.132a2.249,2.249,0,1,1-1.6.659,2.249,2.249,0,0,1,1.6-.659Z" transform="translate(-61.433 -14.951)" fill="#fff"></path><path d="M125.227,21.469v8.466h2.49V26.5a3.572,3.572,0,0,1,.711-2.461,2.284,2.284,0,0,1,2.093-.876l.934.013.013,3.87a5.239,5.239,0,0,0,.165,1.518c.306.978,1.049,1.514,2.487,1.514a5.479,5.479,0,0,0,1.9-.311l-.3-1.718a2.748,2.748,0,0,1-.884.181c-.731.006-.9-.316-.9-1.077V23.175h1.793l.006-1.706h-1.8l-.006-2.4-2.011-.006-.43,2.4h-1.17a3.819,3.819,0,0,0-.948.075,3.086,3.086,0,0,0-1.993,1.738l-.7-1.812Z" transform="translate(-75.839 -11.547)" fill="#fff"></path><path d="M157,977.05a4.382,4.382,0,1,0,3.112,1.279A4.394,4.394,0,0,0,157,977.05Zm.013,2.132a2.25,2.25,0,1,1-1.6.659,2.249,2.249,0,0,1,1.6-.659Z" transform="translate(-92.422 -967.313)" fill="#fff"></path><path d="M181.256,24.687a3.992,3.992,0,0,0-2.946,1.491l-.48-1.306h-1.455v8.467H178.8V27.522a2.177,2.177,0,0,1,1.528-.8,1.136,1.136,0,0,1,1.245,1.245l.012,5.37h2.478V27.887C184.067,25.773,182.835,24.678,181.256,24.687Z" transform="translate(-106.815 -14.951)" fill="#fff"></path><g transform="translate(77.239 9.927)"><path d="M67.644,7.516V6.707h-.237V6.539h.662v.168h-.242v.809Z" transform="translate(-67.407 -6.539)" fill="#fff"></path><path d="M69.4,7.516V6.539h.263l.175.647L70,6.539h.249v.977h-.141V6.755l-.216.761h-.131l-.193-.771V7.52Z" transform="translate(-68.614 -6.539)" fill="#fff"></path></g><g transform="translate(7.431)"><path d="M37.94,2.625V3.632H38.95V2.625Zm0,1.011H36.067V4.647H37.94Zm-1.873,1.01H35.13V6.62h.937Zm0,1.974v.96h.961V6.618Zm.961,0h1.06V5.67h-1.06Zm-.961.96H35.13v.986h-.974V7.581h-1.59v.7H31.7v.861h.948v.964h-.96l.013-.961H30.669v1.514h-.96v.948h-.656v.961h-.687A49.817,49.817,0,0,0,25,18.917c-1.9-2.519-2.78-3.427-4.375-4.314-.57-.316-1.078-.464-1.442-.259a.928.928,0,0,0-.013,1.418,21.268,21.268,0,0,1,4.573,7.531,1.712,1.712,0,0,0,1.614,1.084,1.412,1.412,0,0,0,1.121-.456,2.557,2.557,0,0,0,.3-.666,33.386,33.386,0,0,1,3.34-6.421l.013-1.084h.765l-.013-.961h.826l-.013-1.146h.961V12.6h-.977l.013-.987h.961V12.6h.961v-1h.755V10.424h.869v-.8h.829Zm-1.91,0h.974V6.618h-.974Zm0-.961V5.694h-.972v.924Z" transform="translate(-18.849 -1.59)" fill="#fff"></path><path d="M62.5,960.124h.96v1.012H62.5Z" transform="translate(-45.282 -957.063)" fill="#feb511"></path><path d="M69.8,957.557h1.039v1.013H69.8Z" transform="translate(-49.704 -955.508)" fill="#feb511"></path><path d="M69.8,952.362h1.039V953.4H69.8Z" transform="translate(-49.704 -952.362)" fill="#feb511"></path></g><g transform="translate(30.405 21.08)"><path d="M77.564,60.594h-.458V54.285h.771v2.332a1.515,1.515,0,0,1,1.2-.632c1.281.039,1.754,1.181,1.768,2.283.017,1.322-.711,2.4-1.884,2.411a1.426,1.426,0,0,1-1.227-.638Zm.316-1a1.088,1.088,0,0,0,.985.453c.915.008,1.151-1.009,1.149-1.715,0-.89-.247-1.652-1.042-1.675a1.351,1.351,0,0,0-1.082.5Z" transform="translate(-77.106 -54.18)" fill="#fff"></path><path d="M88.082,64.923l.1-.581a1.035,1.035,0,0,0,1.368-.724l-1.6-4.785h.8l1.132,3.815,1.069-3.815h.783l-1.557,4.957a1.58,1.58,0,0,1-2.1,1.133Z" transform="translate(-83.671 -56.933)" fill="#fff"></path><path d="M103.532,59.782l.395-.542a2.729,2.729,0,0,0,1.781.6c.795,0,1.3-.41,1.3-1.049-.013-1.8-3.093-.79-3.146-3.183a1.636,1.636,0,0,1,1.813-1.571,3.069,3.069,0,0,1,1.753.406l-.339.611a2.66,2.66,0,0,0-1.336-.341c-.694-.006-1.133.269-1.153.853-.058,1.716,3.188.772,3.183,3.206,0,1.136-.85,1.726-2.073,1.738A3.211,3.211,0,0,1,103.532,59.782Z" transform="translate(-93.109 -54.032)" fill="#fff"></path><path d="M127.24,63.2V58.7h.474l.185.734a2.1,2.1,0,0,1,1.566-.828.992.992,0,0,1,1,.79,2.083,2.083,0,0,1,1.5-.79c.948-.008,1.168.686,1.168,1.463v3.138h-.771V60.314c0-.632-.079-1.045-.618-1.033a1.659,1.659,0,0,0-1.141.6v3.321h-.8V60.228c0-.6-.1-.953-.611-.943s-.668.219-1.169.616v3.305Z" transform="translate(-107.467 -56.794)" fill="#fff"></path><path d="M147.626,62.664a1.915,1.915,0,0,1-1.392.614,1.264,1.264,0,0,1-1.383-1.23c0-.924.641-1.181,1.185-1.362a9.2,9.2,0,0,1,1.457-.326c.021-.8-.149-1.1-.806-1.106a2.858,2.858,0,0,0-1.319.379l-.28-.515a2.7,2.7,0,0,1,1.651-.518,1.411,1.411,0,0,1,1.559,1.565V63.2h-.474l-.2-.539Zm-.124-1.78a8.721,8.721,0,0,0-1.132.3c-.488.158-.724.4-.719.85a.608.608,0,0,0,.7.642,1.807,1.807,0,0,0,1.147-.454Z" transform="translate(-118.132 -56.792)" fill="#fff"></path><path d="M170.452,60.761l.118.535a1.867,1.867,0,0,1-.84.143c-.948,0-1.094-.614-1.094-1.317v-2.7h-.672v-.561h.672l.231-1.283h.553v1.283h1.013v.561H169.42V60.16c0,.669.279.672.541.683a1.39,1.39,0,0,0,.491-.079Z" transform="translate(-132.131 -54.96)" fill="#fff"></path><path d="M179.262,62.217l.327.468a2.211,2.211,0,0,1-1.554.6c-1.377,0-1.992-1.05-1.986-2.3s.582-2.369,1.852-2.379c1.58-.009,1.8,1.516,1.8,2.578h-2.817c0,.853.348,1.472,1.058,1.479a2.369,2.369,0,0,0,1.319-.443Zm-2.378-1.58h2c-.039-.711-.222-1.451-.978-1.442-.811.014-.971.761-1.025,1.446Z" transform="translate(-137.026 -56.795)" fill="#fff"></path><path d="M190.512,62.682a2.159,2.159,0,0,1-1.5.588c-1.264.009-1.891-.968-1.892-2.318s.678-2.35,1.995-2.352a2.009,2.009,0,0,1,1.306.474l-.341.518a1.757,1.757,0,0,0-.974-.357c-.9.013-1.176.674-1.174,1.692,0,.849.19,1.707,1.17,1.717a1.531,1.531,0,0,0,1.022-.429Z" transform="translate(-143.734 -56.794)" fill="#fff"></path><path d="M115.608,64.923l.1-.581a1.035,1.035,0,0,0,1.368-.724l-1.6-4.785h.8l1.132,3.815,1.069-3.815h.783l-1.555,4.957a1.58,1.58,0,0,1-2.1,1.133Z" transform="translate(-100.342 -56.933)" fill="#fff"></path><path d="M156.927,63.209v-4.5h.474l.185.734a2.23,2.23,0,0,1,1.708-.828c.821.006,1.141.73,1.141,1.49v3.11h-.8v-2.98c0-.6-.1-.953-.611-.943a2.017,2.017,0,0,0-1.31.616v3.3Z" transform="translate(-125.446 -56.8)" fill="#fff"></path></g></g><path d="M5563.642-3089.1h-25.273a2.369,2.369,0,0,1-2.369-2.369v-18.165a2.369,2.369,0,0,1,2.369-2.369h25.273a2.369,2.369,0,0,1,2.369,2.369v18.165a2.369,2.369,0,0,1-2.369,2.369Zm-15.322-11.391-1.185,4.292h1.433l.8-2.88h6.44a.91.91,0,0,0,.567-.205.953.953,0,0,0,.349-.509l.8-2.88a.581.581,0,0,0-.054-.526.531.531,0,0,0-.46-.205h-7.873l-.389,1.411h7.162l-.417,1.505h-7.161Zm-8.755-2.912-1.8,6.489a.571.571,0,0,0,.062.51.519.519,0,0,0,.45.206h7.387a.66.66,0,0,0,.632-.482l1.866-6.721h-1.433l-1.609,5.8h-5.732l1.609-5.8h-1.433Zm21.561,5.566h0l-.453,1.633,3.809-3.6-1.812-3.6-.453,1.632-.821-1.632-2,7.208,1.729-1.634Zm-2.364-5.585-1.99,7.187h1.433l1.991-7.187h-1.434Z" transform="translate(-5380.415 3115.949)" fill="#fff"></path><path d="M5563.642-3089.1h-25.273a2.369,2.369,0,0,1-2.369-2.369v-18.165a2.369,2.369,0,0,1,2.369-2.369h25.273a2.369,2.369,0,0,1,2.369,2.369v18.165a2.369,2.369,0,0,1-2.369,2.369ZM5558-3102.328a1.808,1.808,0,0,0-.643.042,10.624,10.624,0,0,0,.046,1.459,10.348,10.348,0,0,1,.022,2.592c-.079.153-.223.226-.565.28h-.019c-.289.045-.289.045-.407.509l-.007.029c-.062.237-.079.35-.049.4a.136.136,0,0,0,.1.052,1.067,1.067,0,0,0,.207.011,5.424,5.424,0,0,0,.9-.071c.545-.151.761-.422,1.922-2.409.816-1.4,1.629-2.844,1.612-2.873a3.108,3.108,0,0,0-.553-.026h-.537l-.133.247a9.562,9.562,0,0,1-1.211,2.079.021.021,0,0,1-.014-.007,6.984,6.984,0,0,1-.049-1.178l-.011-1.142Zm4.107-.907h0l-1.6,5.844,1.3-1.185-.316,1.161,3.112-2.823-1.518-3.019-.35,1.285-.637-1.264Zm-7.187,1.59a.651.651,0,0,1,.5.144.228.228,0,0,1,.042.2c-.06.3-.266.4-1.106.543-1.382.233-1.787.494-1.969,1.269-.131.553-.026.834.375,1a.736.736,0,0,0,.349.075c.057,0,.129,0,.2-.005a2.245,2.245,0,0,0,1-.273,1.355,1.355,0,0,1,.391-.146c.065,0,.087.046.129.142l.069.163.158-.022c.088-.013.348-.022.58-.022h.422v-.134c0-.073.146-.711.324-1.422.365-1.446.4-1.593.316-1.737a1.03,1.03,0,0,0-.445-.405,2.662,2.662,0,0,0-1.007-.144,4.2,4.2,0,0,0-1.006.108,1.824,1.824,0,0,0-.759.4,1.343,1.343,0,0,0-.389.547c0,.065.116.09.424.09h.247l.443-.011.171-.144a.689.689,0,0,1,.549-.219Zm-10.143-.683c-.4,0-.5.01-.543.054a.308.308,0,0,0-.053.061c0,.007-.112.4-.207.723-.474,1.629-.593,2.314-.463,2.617a.741.741,0,0,0,.438.371.928.928,0,0,0,.343.055h.148a1.527,1.527,0,0,0,.948-.361.964.964,0,0,1,.409-.2.071.071,0,0,1,.063.028c.027.037.019.116-.022.237a1.26,1.26,0,0,0-.052.168.761.761,0,0,0,.223.01c.105,0,.226,0,.348-.006l.57-.017.044-.153c.28-.956.964-3.5.948-3.537s-.137-.045-.553-.045h-.534l-.094.1a1.3,1.3,0,0,0-.2.486c-.535,1.866-.6,2.008-.928,2.179a.784.784,0,0,1-.35.088.374.374,0,0,1-.357-.174c-.04-.084-.042-.152-.009-.4.037-.279.252-1.171.46-1.91l.083-.3-.083-.033a3.4,3.4,0,0,0-.569-.036Zm4.333-1.381-.706,2.54a24.213,24.213,0,0,0-.666,2.567,5.092,5.092,0,0,0,.69.026h.648l.186-.657c.1-.365.208-.711.237-.782l.007-.022c.042-.115.042-.115.869-.163l.167-.01a6.215,6.215,0,0,0,.784-.088,2.2,2.2,0,0,0,1.5-1.541,1.52,1.52,0,0,0,.01-1.26.878.878,0,0,0-.456-.421c-.287-.141-.6-.168-2.081-.18l-1.194-.01Zm-8.64,3.327c.059,0,.134,0,.253.006.474.016.592.052.724.219.1.128.092.334-.031.85-.111.468-.125.632-.062.693a2.357,2.357,0,0,0,.7.041h.653l.02-.316a6.833,6.833,0,0,1,.107-.738,1.579,1.579,0,0,0,.04-.884,1.175,1.175,0,0,0-.208-.237c-.1-.089-.158-.168-.147-.2a.565.565,0,0,1,.18-.18,2,2,0,0,0,.869-1.215c.154-.6.029-.958-.418-1.185-.253-.128-.505-.149-2.075-.178l-1.35-.024-.092.321c-.065.218-.524,1.859-.718,2.554a22.509,22.509,0,0,0-.587,2.26,5.282,5.282,0,0,0,.689.025h.651l.181-.674c.212-.79.287-1,.376-1.083.044-.034.092-.05.25-.05Zm13.577,1.185a.613.613,0,0,1-.212-.026c-.113-.049-.136-.092-.137-.255a.493.493,0,0,1,.25-.422,3.061,3.061,0,0,1,.934-.3l.216-.02v.133a1.1,1.1,0,0,1-.5.805,1.654,1.654,0,0,1-.55.086Zm-3.827-2.107a.963.963,0,0,1-.286-.021.2.2,0,0,1-.024-.106,7.435,7.435,0,0,1,.273-1.078,2.59,2.59,0,0,1,.536-.033h.066c.5,0,.645.039.75.2a.735.735,0,0,1-.08.632.723.723,0,0,1-.645.379,5.3,5.3,0,0,1-.587.03Zm-9.313-.115a1.469,1.469,0,0,1-.241-.014c-.087-.017-.123-.043-.13-.1a3.454,3.454,0,0,1,.166-.769l.067-.227.463-.024c.118-.006.218-.009.3-.009.339,0,.531.042.606.133a.4.4,0,0,1,.06.247c0,.387-.133.592-.441.683a4.351,4.351,0,0,1-.848.081Z" transform="translate(-5344.085 3115.949)" fill="#fff"></path><path d="M5563.642-3089.1h-25.273a2.369,2.369,0,0,1-2.369-2.369v-18.165a2.369,2.369,0,0,1,2.369-2.369h25.273a2.369,2.369,0,0,1,2.369,2.369v18.165a2.369,2.369,0,0,1-2.369,2.369Zm-.869-10.677a1.851,1.851,0,0,0-1.53.691,3.021,3.021,0,0,0-.546,1.913,3.34,3.34,0,0,0,.479,1.939,1.573,1.573,0,0,0,1.362.674,3.533,3.533,0,0,0,1.4-.281v-2.6h-1.554v.833h.632v1.162a1.886,1.886,0,0,1-.465.06.719.719,0,0,1-.66-.455,3,3,0,0,1-.228-1.309,2.38,2.38,0,0,1,.315-1.31.969.969,0,0,1,.852-.48,1.609,1.609,0,0,1,.8.249l.3-.77a2.329,2.329,0,0,0-1.162-.314Zm-19.548.051-1.255,5.1h.948l.292-1.28h1.321l.292,1.28h.948l-1.264-5.1Zm8.762,2.928h0l.834,2.17h1.005l-1.185-2.876,1.173-2.2h-1.009l-.865,1.757-.33.759v-2.516h-.948v5.076h.948v-1.791l.378-.377Zm5.206-1.508h.045l1.568,3.677h1.152v-5.074h-.869v2.771a4.933,4.933,0,0,0,.066.869h-.039l-1.555-3.638H5556.4v5.073h.875v-2.773a4.411,4.411,0,0,0-.085-.9Zm-10.188,0h.045l1.567,3.677h1.152v-5.074h-.869v2.771a4.933,4.933,0,0,0,.066.869h-.039l-1.555-3.638h-1.161v5.073h.875v-2.773a4.378,4.378,0,0,0-.086-.9Zm7.44-1.4v5.076h.89v-5.074Zm-15.629,0v5.076h1.529a1.328,1.328,0,0,0,1.01-.39,1.517,1.517,0,0,0,.372-1.081,1.443,1.443,0,0,0-.19-.785.99.99,0,0,0-.623-.4v-.034a.778.778,0,0,0,.522-.358,1.344,1.344,0,0,0,.19-.739,1.218,1.218,0,0,0-.362-.978,1.777,1.777,0,0,0-1.152-.307Zm.79-5.709h.045l1.568,3.676h1.154v-5.074h-.869v2.769a4.979,4.979,0,0,0,.066.869h-.042l-1.555-3.638h-1.161v5.075h.875v-2.773a4.445,4.445,0,0,0-.085-.9Zm7.305-.568v4.245h.941v-4.244h.971v-.83h-2.884v.83Zm-3.644-.83v5.075h2.29v-.825h-1.343v-1.407h1.244v-.817h-1.246v-1.209h1.343v-.815Zm-3.084,11.357h-.474v-1.422h.461c.4,0,.6.229.6.68a.9.9,0,0,1-.144.56.523.523,0,0,1-.446.186Zm4.172-1.292h-.959c.2-.869.316-1.4.36-1.641s.086-.461.115-.656c.011.088.041.265.1.577v.011c.055.271.091.456.108.53l.272,1.179Zm-4.215-.916h-.433v-1.227h.4a.611.611,0,0,1,.438.138.626.626,0,0,1,.14.455.772.772,0,0,1-.123.474.494.494,0,0,1-.419.162Z" transform="translate(-5307.755 3115.949)" fill="#fff"></path></g></g></svg> 